<?xml version="1.0" encoding="UTF-8"?>
<svg width="260" height="80" viewBox="0 0 260 80" fill="none" xmlns="http://www.w3.org/2000/svg">
<path d="M193.96 54.9977C196.652 54.9977 198.548 54.7224 199.649 54.2024C200.751 53.6824 201.301 52.673 201.301 51.1741C201.301 50.0118 200.598 48.9718 199.16 48.0847C197.722 47.1977 195.52 46.2188 192.583 45.0871C190.289 44.2306 188.209 43.3436 186.374 42.4259C184.508 41.5083 182.918 40.4071 181.633 39.153C180.318 37.8683 179.308 36.3694 178.605 34.5953C177.871 32.8212 177.534 30.7106 177.534 28.233C177.534 23.4 179.339 19.5765 182.918 16.7624C186.496 13.9483 191.452 12.5412 197.722 12.5412C200.842 12.5412 203.871 12.8165 206.746 13.3671C209.621 13.9177 211.915 14.5294 213.598 15.1718L210.998 26.5812C209.315 26 207.449 25.48 205.461 25.0212C203.473 24.5624 201.24 24.3483 198.762 24.3483C194.205 24.3483 191.911 25.633 191.911 28.1718C191.911 28.753 192.002 29.273 192.216 29.7318C192.4 30.1906 192.798 30.6188 193.379 31.0471C193.96 31.4753 194.755 31.9341 195.765 32.4235C196.774 32.913 198.059 33.4636 199.649 34.0447C202.861 35.2377 205.492 36.4 207.572 37.5624C209.652 38.7247 211.304 39.9483 212.527 41.2941C213.751 42.64 214.576 44.1083 215.066 45.7294C215.555 47.3506 215.8 49.2471 215.8 51.3883C215.8 56.4659 213.873 60.32 210.08 62.92C206.256 65.52 200.842 66.8353 193.868 66.8353C189.311 66.8353 185.487 66.4377 182.459 65.673C179.431 64.8777 177.32 64.2353 176.127 63.7153L178.574 51.8471C181.052 52.8259 183.591 53.5906 186.221 54.1412C188.821 54.7224 191.391 54.9977 193.96 54.9977ZM129.388 63.1341C126.911 63.8377 123.699 64.5106 119.784 65.153C115.868 65.7647 111.739 66.0706 107.426 66.0706C103.052 66.0706 99.4117 65.4894 96.5059 64.2965C93.6 63.1341 91.3059 61.4824 89.5929 59.3412C87.88 57.2306 86.687 54.6918 85.9529 51.7553C85.2494 48.8188 84.8823 45.5765 84.8823 42.0588V13.3671H99.5341V40.3153C99.5341 45.0259 100.146 48.4212 101.4 50.5012C102.654 52.5812 104.948 53.6518 108.344 53.6518C109.384 53.6518 110.454 53.5906 111.616 53.4988C112.779 53.4071 113.849 53.2847 114.767 53.1624V13.3671H129.388V63.1341ZM218.339 39.7341C218.339 36.0024 218.951 32.4847 220.144 29.2118C221.367 25.9083 223.111 23.033 225.374 20.5859C227.668 18.1388 230.452 16.1812 233.694 14.7436C236.967 13.3059 240.699 12.6024 244.859 12.6024C247.612 12.6024 250.12 12.8471 252.414 13.3365C254.708 13.8259 256.911 14.5294 259.082 15.4471L256.054 27.1012C254.678 26.5812 253.179 26.1224 251.558 25.7247C249.936 25.3271 248.101 25.1436 246.082 25.1436C241.769 25.1436 238.558 26.4894 236.416 29.1506C234.306 31.8424 233.235 35.36 233.235 39.7341C233.235 44.3836 234.245 47.9624 236.233 50.5012C238.221 53.04 241.708 54.3247 246.664 54.3247C248.438 54.3247 250.334 54.1718 252.353 53.8353C254.372 53.4988 256.238 52.9788 257.951 52.2753L260 64.2353C258.287 64.9388 256.176 65.5812 253.638 66.1012C251.099 66.6212 248.285 66.8965 245.195 66.8965C240.485 66.8965 236.447 66.193 233.052 64.7859C229.656 63.3788 226.873 61.4824 224.671 59.0659C222.468 56.6494 220.878 53.8047 219.868 50.5012C218.859 47.1671 218.339 43.5883 218.339 39.7341ZM131.927 39.7341C131.927 36.0024 132.539 32.4847 133.732 29.2118C134.955 25.9083 136.699 23.033 138.962 20.5859C141.256 18.1388 144.04 16.1812 147.282 14.7436C150.555 13.3059 154.287 12.6024 158.447 12.6024C161.2 12.6024 163.708 12.8471 166.002 13.3365C168.296 13.8259 170.499 14.5294 172.671 15.4471L169.642 27.1012C168.266 26.5812 166.767 26.1224 165.146 25.7247C163.525 25.3271 161.689 25.1436 159.671 25.1436C155.358 25.1436 152.146 26.4894 150.005 29.1506C147.894 31.8424 146.824 35.36 146.824 39.7341C146.824 44.3836 147.833 47.9624 149.821 50.5012C151.809 53.04 155.296 54.3247 160.252 54.3247C162.026 54.3247 163.922 54.1718 165.941 53.8353C167.96 53.4988 169.826 52.9788 171.539 52.2753L173.588 64.2353C171.875 64.9388 169.765 65.5812 167.226 66.1012C164.687 66.6212 161.873 66.8965 158.783 66.8965C154.073 66.8965 150.035 66.193 146.64 64.7859C143.245 63.3788 140.461 61.4824 138.259 59.0659C136.056 56.6494 134.466 53.8047 133.456 50.5012C132.416 47.1671 131.927 43.5883 131.927 39.7341Z" fill="#D2091E"/>
<path d="M12.113 30.4358L14.8659 32.1488L15.3248 31.3841L12.113 30.4358ZM18.2 27.377L17.2518 28.9064C17.9859 28.7229 18.3224 28.0805 18.2 27.377ZM14.7742 26.1535L17.5577 27.897L18.0165 27.1323L14.7742 26.1535ZM14.6212 26.3982L16.9153 28.8758L17.3742 28.1417L14.6212 26.3982ZM15.5083 31.6593L14.5295 33.1888C15.2636 33.0358 15.6612 32.2711 15.5083 31.6593ZM11.96 30.6805L14.2542 33.1582L14.713 32.3935L11.96 30.6805ZM17.4048 31.3229L12.6636 28.3558L12.2659 28.3864L11.44 29.7323L11.5012 29.9464L15.5083 31.1699C15.8753 31.1699 15.9671 32.1182 15.6612 32.6993C15.1718 33.3723 14.6212 33.617 14.0706 33.4641L11.2565 30.3441L11.073 30.3746L10.9812 30.497C10.6753 30.7417 10.4306 30.4052 10.7365 30.1605C10.4918 29.9464 10.7671 29.4264 11.1036 29.5488L11.9295 28.2029C11.8377 28.0499 11.8071 27.9276 11.8071 27.8664L11.1953 27.4688C10.8589 27.1017 11.2871 26.7346 11.593 26.8876L12.2048 27.2546C12.2965 27.2241 12.4189 27.2241 12.5412 27.2241L13.3671 25.9088C13.1836 25.5111 13.4895 25.2052 13.7648 25.2664C13.8871 24.9299 14.2848 25.0217 14.193 25.3582L14.1012 25.4805C14.1318 25.5417 14.1624 25.6335 14.1624 25.6641L18.2612 26.9182C18.4448 26.8876 18.6895 27.7746 18.3836 28.3864C17.9859 29.1205 16.8848 29.457 16.793 29.1817L13.9177 26.0923C13.8259 26.1229 13.7648 26.1535 13.7036 26.1229L12.8471 27.4688C12.9389 27.5605 12.9695 27.6523 12.9695 27.8052L17.7412 30.7723C18.0777 31.017 17.7718 31.4758 17.4048 31.3229Z" fill="#646363"/>
<path d="M13.153 41.6924C13.5813 41.4782 13.7648 40.9582 13.5507 40.4994C13.3365 40.0712 12.8165 39.8877 12.3577 40.1018C11.9295 40.3159 11.746 40.8359 11.9601 41.2947C12.2048 41.723 12.7248 41.9065 13.153 41.6924ZM8.47302 40.5912C8.47302 40.2547 8.19772 39.9794 7.86125 39.9794C7.52478 39.9794 7.24949 40.2547 7.24949 40.5912C7.24949 40.9277 7.52478 41.203 7.86125 41.203C8.19772 41.203 8.47302 40.9277 8.47302 40.5912ZM10.9813 42.1818L11.1954 42.243L12.8777 42.7935L8.74831 40.53C8.74831 40.8665 8.62596 41.1112 8.35066 41.2947L10.9813 42.1818ZM9.36008 40.5606L10.7977 40.01L13.1224 39.0924L10.706 39.5512L8.44243 39.9794L8.53419 40.1018L9.36008 40.5606ZM9.69655 40.7135L10.3083 41.05L10.7671 41.2947L10.7365 41.0806L10.3389 41.05V40.4382L9.69655 40.7135ZM10.7977 40.2853L10.553 40.3771H10.7671L10.7977 40.2853ZM14.8354 38.7559L14.2848 38.97L14.4377 39.0924L14.2236 39.4288C14.3154 39.5206 14.4071 39.6124 14.4683 39.7347L14.8354 39.5512L15.1413 40.1935L14.7742 40.3771C14.8048 40.4994 14.8354 40.6218 14.8354 40.7441L15.2636 40.7747L15.2024 41.4783L14.7742 41.4477C14.7436 41.57 14.713 41.6924 14.6518 41.7841L15.0189 42.0288L14.6213 42.61L14.2542 42.3653C14.1624 42.4571 14.0707 42.5488 13.9789 42.61L14.1624 42.9771L13.9483 43.0688L14.4071 43.3135L14.2848 43.5888L12.9389 43.1606L12.9083 43.4053L12.2048 43.3441L12.2354 42.9159C12.113 42.8853 11.9907 42.8547 11.8989 42.7935L11.6542 43.13L11.073 42.7324L11.1954 42.5488L7.7389 41.4171C6.42361 41.2335 6.91302 39.4594 8.01419 39.7347L11.4707 39.0924L11.3483 38.8477L11.9907 38.5418L12.1742 38.9088C12.2965 38.8782 12.4189 38.8477 12.5413 38.8477L12.5718 38.45L13.2754 38.5112L13.2448 38.7865L14.713 38.5112L14.8354 38.7559ZM7.67772 40.6218C7.67772 40.7441 7.76949 40.8359 7.89184 40.8359C8.01419 40.8359 8.10596 40.7441 8.10596 40.6218C8.10596 40.4994 8.01419 40.4077 7.89184 40.4077C7.76949 40.4077 7.67772 40.4994 7.67772 40.6218ZM7.46361 40.6218C7.46361 40.4077 7.64714 40.2241 7.86125 40.2241C8.07537 40.2241 8.2589 40.4077 8.2589 40.6218C8.2589 40.8359 8.07537 41.0194 7.86125 41.0194C7.64714 41.0194 7.46361 40.8359 7.46361 40.6218Z" fill="#646363"/>
<path d="M23.0636 25.2359C23.0636 25.2359 22.9412 25.0218 23.1554 24.93C24.1954 24.3183 24.3789 23.5535 24.1342 23.0641C23.6754 23.2171 23.186 23.0641 22.9718 22.7277C22.7883 22.4218 22.8495 22.0241 23.1248 21.6877C22.2377 22.0241 21.2895 21.9018 20.8307 21.3206L24.8683 18.9959C25.113 19.6994 24.7765 20.5559 24.0424 21.1677C24.4401 21.1065 24.8377 21.2594 25.0212 21.5653C25.2354 21.9324 25.113 22.3912 24.746 22.7277C25.0518 23.1559 25.8165 23.4006 26.8565 22.8194C27.0707 22.6971 27.1624 22.9112 27.1624 22.9112L23.0636 25.2359ZM20.586 20.923C20.3107 20.1583 20.7695 19.1488 21.7177 18.5371L21.473 18.1088L21.0754 18.3535L20.9224 18.1088L21.3201 17.8641L21.106 17.4359L21.3507 17.283L21.5648 17.6806L21.9624 17.4665L22.1154 17.7112L21.7177 17.9559L21.9624 18.3841C22.9718 17.8641 24.073 17.9559 24.593 18.5983L20.586 20.923Z" fill="#646363"/>
<path d="M32.5458 70.8124C32.454 71.0571 31.567 70.7206 31.7505 70.323C32.5152 68.7018 33.5858 67.9065 34.8093 67.4783C33.9835 67.3559 33.0964 67.203 32.087 66.9888C31.8117 66.9277 31.9646 66.3771 32.2705 66.4688C33.647 66.8359 35.054 66.8971 36.3999 67.1112C37.7152 66.8971 39.1223 66.8359 40.5293 66.4688C40.8352 66.3771 40.9882 66.9277 40.7129 66.9888C39.7035 67.2336 38.7858 67.3559 37.9905 67.4783C39.214 67.9065 40.2846 68.7018 41.0493 70.323C41.2329 70.7206 40.3764 71.0571 40.254 70.8124C39.4282 68.7018 38.2046 68.09 36.3999 67.723C34.5646 68.09 33.3411 68.7018 32.5458 70.8124Z" fill="#646363"/>
<path d="M48.4211 60.29C48.727 62.4006 47.4729 64.3582 45.5764 65.0311C45.4234 64.6641 45.3011 64.2664 45.2399 63.8382C44.934 61.7276 46.1881 59.77 48.0846 59.097C48.2376 59.4641 48.3599 59.8617 48.4211 60.29ZM51.6634 57.9041C52.3058 59.8006 51.5105 61.85 49.8587 62.8594C49.6446 62.5535 49.4611 62.1864 49.3081 61.8194C48.6658 59.9229 49.4611 57.8735 51.1129 56.8641C51.3576 57.1394 51.5411 57.5064 51.6634 57.9041ZM54.3246 55.1511C55.2423 56.8335 54.8446 58.8829 53.4682 60.0758C53.1929 59.8311 52.9787 59.5253 52.7952 59.1888C51.8776 57.5064 52.2752 55.457 53.6517 54.2641C53.8964 54.5088 54.1411 54.8147 54.3246 55.1511ZM56.4046 52.49C57.4446 53.8664 57.3223 55.7629 56.2517 56.9864C55.9764 56.8029 55.7317 56.5582 55.5176 56.2829C54.4776 54.9064 54.5999 53.01 55.6705 51.7864C55.9458 51.97 56.1905 52.1841 56.4046 52.49ZM46.2187 66.3159C45.974 65.9794 45.7905 65.6429 45.6376 65.2758C47.3811 64.45 49.5223 64.9394 50.7458 66.5606C50.9905 66.897 51.174 67.2335 51.327 67.6006C49.5834 68.4264 47.4423 67.937 46.2187 66.3159ZM50.7152 63.9606C50.4399 63.6853 50.1952 63.41 50.0117 63.0735C51.5105 62.0029 53.5905 62.1253 54.9976 63.41C55.2729 63.6853 55.5176 63.9606 55.7011 64.297C54.2023 65.3676 52.1223 65.2453 50.7152 63.9606ZM54.5082 60.9323C54.1717 60.7488 53.8964 60.5347 53.6517 60.29C54.7834 58.9747 56.7411 58.577 58.3317 59.4641C58.6681 59.6476 58.9434 59.8617 59.1882 60.1064C58.0564 61.4217 56.0987 61.8194 54.5082 60.9323ZM57.3223 57.69C57.0164 57.537 56.7411 57.3841 56.4658 57.17C57.414 55.8547 59.1882 55.3347 60.7482 56.0382C61.054 56.1911 61.3293 56.3441 61.6046 56.5582C60.6258 57.8735 58.8517 58.3629 57.3223 57.69ZM44.6893 62.1864C44.6282 64.3276 43.0376 66.0406 41.0187 66.377C40.927 65.9794 40.8658 65.5511 40.8964 65.1229C40.9576 62.9817 42.5481 61.2688 44.567 60.9323C44.6587 61.33 44.6893 61.7582 44.6893 62.1864ZM41.447 67.8147C41.2634 67.4476 41.1411 67.0806 41.0799 66.6829C42.9458 66.2241 44.9646 67.1111 45.8517 68.9158C46.0352 69.2829 46.1576 69.65 46.2187 70.0476C44.3529 70.5064 42.334 69.6194 41.447 67.8147Z" fill="#646363"/>
<path d="M24.3483 60.29C24.4095 59.8617 24.5319 59.4641 24.6848 59.097C26.6119 59.8006 27.8354 61.7582 27.5295 63.8382C27.4683 64.2664 27.346 64.6641 27.193 65.0311C25.2966 64.3582 24.0424 62.4006 24.3483 60.29ZM21.106 57.9041C21.2283 57.5064 21.4119 57.17 21.6566 56.8641C23.3083 57.8429 24.1036 59.8923 23.4613 61.8194C23.3389 62.217 23.1554 62.5535 22.9107 62.8594C21.2283 61.85 20.433 59.8006 21.106 57.9041ZM18.4448 55.1511C18.6283 54.8147 18.873 54.5088 19.1177 54.2641C20.4942 55.457 20.9224 57.5064 19.9742 59.1888C19.7907 59.5253 19.546 59.8311 19.3013 60.0758C17.9248 58.8829 17.5271 56.8335 18.4448 55.1511ZM16.3342 52.49C16.5483 52.2147 16.793 51.97 17.0683 51.7864C18.1695 53.0406 18.2613 54.9064 17.2213 56.2829C17.0071 56.5582 16.7624 56.8029 16.4871 56.9864C15.4166 55.7323 15.3248 53.8664 16.3342 52.49ZM26.5201 66.3159C25.2966 67.9064 23.1554 68.3958 21.4119 67.6006C21.5342 67.2335 21.7483 66.897 21.993 66.5606C23.2166 64.97 25.3577 64.4806 27.1013 65.2758C26.9789 65.6429 26.7648 66.01 26.5201 66.3159ZM22.0236 63.9606C20.6166 65.2759 18.5366 65.3676 17.0377 64.297C17.2213 63.9911 17.466 63.6853 17.7413 63.41C19.1483 62.0947 21.2283 62.0029 22.7271 63.0735C22.5436 63.41 22.3295 63.6853 22.0236 63.9606ZM18.2307 60.9323C16.6401 61.8194 14.6824 61.4217 13.5507 60.1064C13.7954 59.8617 14.0707 59.6476 14.4071 59.4641C15.9977 58.577 17.9554 58.9747 19.0871 60.29C18.8424 60.5347 18.5671 60.7488 18.2307 60.9323ZM15.4471 57.69C13.9177 58.3629 12.1436 57.8735 11.1648 56.5582C11.4095 56.3441 11.6848 56.1606 12.0213 56.0382C13.5507 55.3653 15.3248 55.8547 16.3036 57.17C16.0283 57.3841 15.753 57.537 15.4471 57.69ZM28.0801 62.1864C28.0801 61.7582 28.1107 61.33 28.2024 60.9323C30.2213 61.2688 31.7813 63.0123 31.873 65.1229C31.873 65.5511 31.8424 65.9794 31.7507 66.377C29.7319 66.0406 28.1413 64.297 28.0801 62.1864ZM31.2919 67.8147C30.4048 69.6194 28.386 70.5064 26.5201 70.0476C26.5813 69.6806 26.7036 69.2829 26.8871 68.9158C27.7742 67.1111 29.793 66.2241 31.6589 66.6829C31.5977 67.0806 31.4754 67.4476 31.2919 67.8147Z" fill="#646363"/>
<path d="M58.7904 40.9888C58.8516 41.1417 58.9128 41.3253 58.9128 41.6006L59.1575 44.7817L64.0516 43.4664L63.8681 41.05C63.8681 40.5606 63.2869 40.6829 63.2869 40.6829L58.7904 40.9888ZM58.5763 36.6453L58.821 39.857C58.8822 40.1323 58.7293 40.4382 58.7293 40.4382L63.4093 40.0712C63.8069 40.0712 63.8069 39.5817 63.8069 39.5817L63.6234 37.3182L58.5763 36.6453ZM57.7198 35.2688L58.0869 40.377C58.2398 40.377 58.2398 39.8876 58.2398 39.8876L57.9646 35.9112L64.1434 36.7676L64.3881 39.5206C64.4493 39.9182 64.1128 40.3464 64.1128 40.3464C64.3575 40.3464 64.4798 40.9888 64.4798 40.9888L64.694 43.8335L58.6069 45.5159L58.3316 41.6923C58.3316 41.2947 58.1787 41.1417 58.1787 41.1417L58.4846 45.8523L63.5928 44.3841L63.7457 44.9653L57.9034 46.5559L57.1387 35.33L57.7198 35.2688Z" fill="#646363"/>
<path d="M47.2894 22.7582L46.5859 24.0123C46.4329 24.1652 46.8 24.4405 46.9529 24.257L47.6564 23.0641C47.5953 22.9723 47.4423 22.9111 47.2894 22.7582ZM48.1764 21.2288L47.6259 22.1464C47.687 22.2993 47.8094 22.2993 47.9623 22.4523L48.4823 21.5346C48.4517 21.3817 48.2988 21.3205 48.1764 21.2288ZM49.0941 19.6382L48.5435 20.617C48.5741 20.7088 48.7576 20.7699 48.88 20.8923L49.4306 19.9135C49.3388 19.7911 49.1859 19.7299 49.0941 19.6382ZM49.4306 19.057C49.4917 19.1793 49.6141 19.2405 49.767 19.3323L50.6541 17.7723C50.7459 17.5582 50.3788 17.3746 50.287 17.5582L49.4306 19.057ZM50.0117 19.577C50.5012 20.2499 50.0729 21.0452 49.1859 21.0146L49.0941 21.1676C49.5835 21.8405 49.0635 22.6358 48.2988 22.5746L48.207 22.697C48.7882 23.5535 48.1153 24.2264 47.3811 24.1346C47.167 24.6241 46.8612 24.777 46.4941 24.5629C46.2188 24.3488 46.127 24.1346 46.28 23.8899L47.0753 22.5135C46.5553 21.6876 47.167 21.0758 47.8706 21.1064L47.9623 20.984C47.32 20.0358 48.1153 19.4241 48.7882 19.5464L48.88 19.3935C48.3294 18.537 49.0023 17.8946 49.7059 17.9864L50.0729 17.3746C50.2564 17.1299 50.5011 17.0993 50.7459 17.2217C51.0211 17.4052 51.1129 17.6193 51.0212 17.8641L50.7153 18.384C50.8682 18.4758 50.9906 18.5676 50.9906 18.5676C51.3882 18.8735 51.5106 19.1793 51.3882 19.4546C51.3882 19.4546 51.327 19.5464 51.327 19.6382C51.3576 19.7299 51.2964 19.7911 51.2964 19.7911C51.3576 19.9135 51.3882 20.1888 51.3882 20.1888H51.2353C51.2659 20.1276 51.1741 19.8217 51.1741 19.8217C50.96 19.7911 50.807 19.4852 50.7764 19.4546C50.7459 19.424 50.6541 19.3017 50.6541 19.3017L50.5929 19.1488C50.5929 18.9958 50.44 18.8429 50.44 18.8429L50.0117 19.577Z" fill="#646363"/>
<path d="M55.6399 29.9464L55.7011 29.457L55.7623 28.9982L55.8235 28.7535L55.7929 28.9064L55.7011 29.457L55.487 29.0288C55.2729 29.2123 55.0588 29.3958 54.8752 29.5794C55.0893 29.7017 55.3646 29.8241 55.6399 29.9464ZM57.8729 27.1629C58.2093 27.01 58.5458 26.8876 58.8211 26.8264C58.7599 26.0923 58.5458 25.6641 58.2093 25.6029C57.9035 25.5417 57.5364 25.8476 57.1693 26.3982C57.4141 26.6123 57.6282 26.857 57.8729 27.1629ZM55.6093 28.5088L56.007 28.2029L56.4352 27.897L56.6188 27.8053H56.4964L56.4352 27.9276L56.007 28.2335L56.1599 27.7747C55.8541 27.7441 55.5788 27.7441 55.3341 27.7441C55.3952 27.9582 55.487 28.2335 55.6093 28.5088ZM56.9246 31.2005C56.5576 31.3535 56.2211 31.4758 55.8846 31.5676C55.9152 32.3323 56.1293 32.7911 56.4658 32.9441C56.8023 33.0053 57.2305 32.6382 57.6588 31.9347C57.4141 31.7511 57.1693 31.5064 56.9246 31.2005ZM59.1576 29.8853L58.7293 30.1911L58.8517 29.7323L59.0046 29.5794L58.9435 29.4264L58.8823 29.6711L58.7293 30.1911L58.5764 30.65C58.8823 30.6805 59.1576 30.7111 59.4329 30.7111C59.3717 30.4358 59.2493 30.1911 59.1576 29.8853ZM55.9458 30.0688V29.9464V30.0688ZM54.967 27.7441C54.2941 27.8053 53.8658 27.9888 53.7129 28.3253C53.6517 28.6311 53.9882 29.0594 54.5999 29.457C54.8141 29.2429 55.0588 28.9982 55.3341 28.7535C55.1811 28.3864 55.0588 28.05 54.967 27.7441ZM58.1482 28.0805C57.9646 28.0194 57.7505 27.9582 57.5364 27.9276L57.1693 27.8664C56.9552 27.9888 56.7411 28.1111 56.527 28.2335L56.2823 28.417C56.2211 28.6617 56.1293 28.9064 56.0682 29.1817L56.0376 29.4264C56.1293 29.61 56.2517 29.8241 56.3741 30.0076L56.5882 30.2829C56.7717 30.3441 56.9552 30.4053 57.1693 30.4358L57.6282 30.5276L58.0564 30.2829L58.4846 29.977L58.607 29.5182L58.6988 28.937C58.607 28.7841 58.5152 28.6005 58.4235 28.4476L58.1482 28.0805ZM58.7905 28.2947L58.6376 28.2335L58.7293 28.417L58.7905 28.2947ZM59.8917 28.7841C59.647 28.6617 59.4023 28.5394 59.0964 28.417C59.0658 28.57 59.0352 28.7535 59.0046 28.937L59.2188 29.3653C59.4941 29.1817 59.7082 28.9676 59.8917 28.7841ZM61.0846 30.0688C61.1458 29.7323 60.8093 29.3347 60.1976 28.937C59.9835 29.1817 59.7082 29.4264 59.4023 29.6711C59.5552 30.0382 59.6776 30.3441 59.7693 30.65C60.5646 30.65 61.0235 30.4358 61.0846 30.0688ZM59.1576 28.0805C59.5246 28.2335 59.8611 28.3864 60.1364 28.5394C60.6258 27.9582 60.7482 27.53 60.5646 27.2547C60.3811 26.9794 59.8917 26.9488 59.1882 27.1017C59.1882 27.377 59.1882 27.7135 59.1576 28.0805ZM58.3623 27.8053L58.8211 27.9582C58.8517 27.6829 58.8517 27.4076 58.8517 27.1629C58.607 27.2241 58.3623 27.3158 58.087 27.4382L58.3623 27.8053ZM57.6893 27.5911L57.8423 27.6217L57.6893 27.5911ZM56.6188 27.4688L57.1082 27.53L57.567 27.3158C57.3835 27.0711 57.1999 26.8876 57.0164 26.7041C56.8635 26.9182 56.7411 27.1629 56.6188 27.4688ZM55.2423 27.4076C55.5482 27.377 55.8846 27.4076 56.2823 27.4382C56.4352 27.0711 56.5882 26.7347 56.7411 26.4288C56.1293 25.8782 55.6705 25.7253 55.3646 25.9394C55.0893 26.1229 55.0588 26.6735 55.2423 27.4076ZM55.6093 30.2523C55.2729 30.0994 54.9364 29.977 54.6917 29.8241C54.2023 30.4053 53.9882 30.8641 54.1105 31.2005C54.2941 31.4758 54.8141 31.537 55.5788 31.3535C55.5482 31.017 55.5482 30.6805 55.6093 30.2523ZM56.3741 30.5276L55.9152 30.3747C55.8846 30.7111 55.8846 30.9864 55.8846 31.2617C56.1293 31.17 56.4352 31.0782 56.7105 30.9558L56.3741 30.5276ZM57.1388 30.7417L56.9552 30.6805L57.0164 30.8029L57.1388 30.7417ZM58.1482 30.9253L57.6588 30.8335L58.1176 30.5888H58.3011L58.3623 30.4358L58.1176 30.5888C57.9341 30.6805 57.7811 30.7723 57.6282 30.8641L57.1999 31.0782C57.4141 31.3229 57.5976 31.5064 57.7811 31.69C57.9341 31.4758 58.0258 31.2005 58.1482 30.9253ZM59.5246 31.017C59.2188 31.017 58.8517 31.017 58.4541 30.9558C58.3317 31.2923 58.1788 31.5982 58.0258 31.8735C58.5458 32.3323 59.0046 32.4853 59.3411 32.3629C59.6164 32.2405 59.6776 31.7205 59.5246 31.017ZM61.4211 30.1911C61.2682 30.65 60.687 30.9253 59.8305 31.017C60.0141 31.8429 59.8917 32.4241 59.5246 32.6688C59.0658 32.8523 58.5152 32.6994 57.8729 32.1794C57.3835 33.0053 56.8635 33.4029 56.4046 33.3111C55.9458 33.097 55.6705 32.577 55.5788 31.69C54.6917 31.9041 54.0799 31.8123 53.8352 31.4147C53.6517 30.9253 53.8352 30.3441 54.3858 29.6711C53.6517 29.2123 53.2846 28.6923 53.3764 28.2641C53.5599 27.8053 54.0799 27.53 54.8752 27.4382C54.6611 26.5205 54.7835 25.9088 55.2117 25.6029C55.6399 25.3888 56.2517 25.5723 56.8941 26.1229C57.3529 25.4194 57.8423 25.1135 58.3317 25.2358C58.7599 25.3888 59.0352 25.9088 59.127 26.7041C59.9835 26.5205 60.5952 26.6429 60.8399 27.0711C61.0541 27.4994 60.8705 28.05 60.3811 28.6617C61.207 29.1817 61.5435 29.6711 61.4211 30.1911ZM57.5976 28.2335C58.1176 28.3558 58.4235 28.8758 58.3011 29.3958C58.1788 29.9158 57.6588 30.2217 57.1388 30.0994C56.6188 29.977 56.3129 29.457 56.4352 28.937C56.5576 28.417 57.0776 28.1111 57.5976 28.2335Z" fill="#646363"/>
<path d="M35.0236 3.91586C34.7177 3.67116 34.5036 3.39586 34.4119 3.08998L33.6472 3.97704L33.1577 3.05939L33.0048 3.12057L33.4636 4.25233L33.0354 4.92527L32.026 3.48763L32.6989 5.59821L32.4848 6.20998L31.6283 5.26174L31.5366 5.41469L32.3319 6.48527L32.026 7.1888L30.7719 6.11821L30.6189 6.36292L31.8119 7.80057L31.7201 8.38174L30.6495 7.7088L30.5577 7.89233L31.6283 8.71821L31.506 9.36057L29.8236 8.65704L29.7319 8.80998L31.4142 9.91116L31.353 10.4923L30.0989 10.0641L30.0071 10.3394L31.3224 10.8594V11.3794H29.2424L29.273 11.5935L31.353 12.0217L31.4142 12.5723L30.0377 12.6947L30.0683 12.9088L31.4448 12.8476L31.506 13.3676L29.4872 14.2241L29.5483 14.4994L31.5671 14.01L31.7201 14.5912L30.4966 15.2947L30.5883 15.4476L31.8119 14.8664L31.9036 15.417L30.2519 17.0382L30.3742 17.2217L32.0872 16.2429L32.3624 17.0994L31.4448 18.2312L31.506 18.3535L32.393 17.4664L32.6071 18.2006L31.5671 20.1582L31.7507 20.3723L32.913 18.9959L33.3413 19.8829L32.7907 21.2288L33.0048 21.3512L33.4942 20.2194L34.1977 21.4429C34.3507 21.3206 34.5342 21.1982 34.7177 21.1065C34.6871 20.9841 34.6566 20.8617 34.6566 20.7088C34.7483 20.8312 34.7789 20.9535 34.8095 21.0453C35.0236 20.9229 35.2683 20.8312 35.513 20.77L34.8401 20.6476L35.2989 19.1794L32.8824 16.0594L33.0048 13.9182L32.913 13.7347L32.8213 13.6123L32.2707 12.7559L32.8519 11.3182L31.9648 10.1865C33.1883 5.87351 33.0354 5.29233 35.0236 3.91586ZM35.2377 3.76292C35.4824 3.57939 35.7577 3.39586 36.0942 3.18174L37.593 3.85469C38.0519 3.79351 38.5413 3.45704 38.6636 2.90645C38.7554 1.92763 37.746 1.31586 36.6448 1.31586C35.2377 1.25468 33.7083 2.63116 35.2377 3.76292ZM35.0542 21.3512C35.2683 21.5959 35.6048 21.7794 35.9719 21.8406C35.8189 21.7182 35.7577 21.657 35.7577 21.5653C35.666 21.5347 35.6048 21.4735 35.6354 21.3512C35.6048 21.3512 35.6048 21.1982 35.6048 21.1982L35.5742 20.8923C35.3601 21.0147 35.1766 21.1676 35.0542 21.3512ZM36.0636 21.8712C36.1554 21.8712 36.2777 21.9017 36.4001 21.9017C37.0119 21.8712 37.5013 21.6265 37.746 21.2288C37.6236 21.0759 37.4707 20.9535 37.2872 20.8617L36.5836 20.9229L36.186 21.81L36.0636 21.8712ZM37.8683 20.9229C38.3271 21.1676 38.6636 21.4735 39.0001 21.9323L39.7036 20.5559L40.3766 21.5653L40.5601 21.2594L40.0095 19.9747L40.346 19.21L41.4777 20.77L41.6613 20.5253L40.6213 18.5065L40.8966 17.6806L41.8142 18.8123L41.9977 18.3841L41.0801 17.1912L41.3248 16.457L43.0071 17.497L43.1295 17.13L41.4777 15.7535L41.6613 15.05L42.9154 15.6312L43.0071 15.3559L41.7224 14.6217L41.8142 14.1629L43.8942 14.5912L43.9554 14.3465L41.8754 13.5512L41.9671 12.97L43.4048 13.1535L43.4354 12.9088L41.9977 12.5417V12.0523L44.1695 11.8076V11.5629H42.0589L42.0283 10.9817L43.3742 10.6453L43.313 10.3088L41.9977 10.5535L41.9671 10.0947L43.7719 9.11586L43.6495 8.90174L41.906 9.5441L41.8448 9.11586L43.0377 8.19821L42.946 7.9841L41.8142 8.68763L41.6613 8.01469L43.1295 6.39351L42.946 6.24057L41.5083 7.49469L41.2942 6.85233L42.2119 5.75116L42.0589 5.53704L41.1413 6.36292L40.9577 5.93468L41.8754 3.91586L41.6613 3.79351L40.5907 5.20057L40.2542 4.64998L40.866 3.39586L40.713 3.24292L40.0095 4.25233L38.9389 3.0288C38.8166 3.51821 38.4801 3.88527 37.9601 4.12998L38.8471 4.77233L39.6119 5.68998L40.6213 7.49469L41.6001 10.5535L40.713 10.9206L41.2636 12.4806L40.346 14.3465V16.1512L39.9789 16.2429L39.3366 17.5888L40.0095 18.8429C40.1319 18.9959 40.193 19.1488 40.1624 19.3017C39.7954 20.3723 39.0307 20.8923 37.8683 20.8312L37.5624 20.8617C37.7154 20.8617 37.8072 20.8923 37.8683 20.9229ZM36.9201 4.92527C36.7977 4.80292 36.7366 4.71116 36.7671 4.5888C36.553 4.28292 36.2777 4.16057 35.9107 4.22174C35.6354 4.19116 35.513 4.28292 35.5436 4.46645L35.7271 4.77233C35.7577 5.13939 36.033 5.41469 36.5224 5.56763C36.9507 5.47586 37.1036 5.23116 36.9201 4.92527ZM37.1036 6.82174C37.1648 7.03586 37.1648 7.21939 37.4095 7.58645C37.593 7.49468 37.9295 7.95351 38.1742 8.28998L38.2048 8.01469C38.266 7.7088 38.266 7.43351 38.2048 7.1888C38.2048 6.97469 38.4801 6.54645 38.6024 6.45469L37.7154 5.93468L37.5013 6.33233C37.3177 6.36292 37.226 6.45469 37.1648 6.63821C37.1954 6.72998 37.1648 6.79116 37.1036 6.82174ZM37.1342 5.23116C37.073 5.44527 36.7977 5.68998 36.4919 5.72057C36.2166 5.72057 36.2777 5.93468 34.8095 6.4241C35.1766 6.91351 35.4213 7.15821 35.2989 7.49469C35.513 7.49469 35.4519 7.4641 35.4824 7.34174C35.513 7.24998 35.5742 7.06645 35.6048 6.91351C35.6048 6.79116 35.6354 6.72998 35.666 6.63821C35.7577 6.4241 35.8801 6.27116 36.0024 6.08763C36.0636 5.99586 36.1248 5.96527 36.186 6.05704C36.2166 6.08763 36.2166 6.17939 36.186 6.33233L36.0636 6.69939C36.1248 6.63821 36.186 6.63821 36.2166 6.69939C36.3083 6.79116 36.2471 6.79116 36.2471 6.88292C36.1248 7.28057 36.2166 7.31116 35.9413 7.67821C36.0636 7.7088 36.1248 7.76998 36.0636 7.89233L35.6048 9.08527C35.5742 9.17704 35.513 9.23821 35.4519 9.32998L35.9107 9.2688L36.4919 9.32998L37.2566 9.20763C37.1036 8.96292 36.6754 8.16763 36.9201 8.01469C36.8589 7.92292 36.8283 7.83116 36.7977 7.73939C36.7672 7.67821 36.6448 7.49469 36.5224 7.24998C36.4001 6.85233 36.6448 6.82174 36.4001 6.60763C36.3083 6.48527 36.2472 6.33233 36.2166 6.08763C36.1554 5.9041 36.2777 5.81233 36.4307 5.96527C36.706 6.24057 36.8895 6.39351 36.9507 6.51586C37.0424 6.30174 37.1342 6.17939 37.3483 6.11821L37.4707 5.87351C37.3789 5.47586 37.1648 5.56763 37.1342 5.26174V5.23116ZM35.6966 20.7394L35.7271 21.137L35.7883 20.9841V21.3817L35.9719 21.0759C36.0024 20.9841 36.1248 21.0147 36.0942 21.1065L35.9107 21.5653L36.1554 21.1676C36.186 21.1064 36.3083 21.1065 36.2777 21.2288L36.0636 21.7488L36.4919 20.8923L35.6966 20.7394ZM33.7083 5.68998C33.4024 6.05704 32.7601 8.10645 32.393 9.91116C32.7295 9.60527 33.3107 9.84998 34.106 10.6147L34.0142 10.1253L33.8307 9.63586L33.8001 9.2688L33.6472 8.53469L33.6166 6.24057C33.6166 6.08763 33.6471 5.9041 33.7083 5.68998ZM39.4589 6.02645C40.1013 8.13704 39.5813 7.24998 39.6424 9.51351L39.4283 11.1041L41.2024 10.37L40.3154 7.55586L39.4589 6.02645ZM38.4801 7.15821C38.5107 7.49468 38.5107 7.76998 38.4801 7.9841C38.4189 8.25939 38.4189 8.47351 38.4495 8.65704L38.786 8.90174C38.8471 9.0241 38.7554 9.11586 38.633 9.08527C38.4189 8.96292 38.2048 8.80998 38.0519 8.5041C37.8377 8.19821 37.6542 7.9841 37.5013 7.86174L37.1036 8.25939C37.5319 9.39116 37.8683 9.81939 38.4189 10.0335C38.7554 10.0947 39.0001 9.91116 39.1224 9.45233C39.153 9.0241 39.2448 8.59586 39.2754 8.25939C39.3366 7.67821 39.306 7.31116 39.3671 7.06645C39.3366 6.91351 39.2754 6.79116 39.1836 6.6688C39.0307 6.60763 38.9389 6.57704 38.8471 6.60763C38.7248 6.63821 38.6024 6.82174 38.4801 7.15821ZM36.4001 6.08763C36.4307 6.27116 36.4919 6.39351 36.553 6.54645C36.706 6.69939 36.7366 6.82174 36.706 6.91351C36.6448 7.12763 36.706 7.34174 36.9201 7.58645C37.0424 7.73939 36.9813 7.80057 37.1036 7.9841L37.3789 7.67821C37.1954 7.40292 37.1036 7.15821 37.073 6.97468C36.9507 6.72998 36.8895 6.54645 36.4001 6.08763ZM35.8495 7.7088C35.8495 7.58645 36.033 7.4641 36.0636 7.28057C36.0636 7.15821 36.1554 6.88292 36.1554 6.88292L36.0024 7.21939C35.8801 7.00527 35.9719 6.79116 35.9719 6.79116L36.0942 6.39351C36.1248 6.27116 35.8495 6.63821 35.7883 6.79116C35.7577 6.91351 35.7271 7.03586 35.7271 7.03586C35.7271 7.03586 35.6048 7.31116 35.6048 7.43351C35.6048 7.55586 35.5436 7.64763 35.5436 7.64763L35.8495 7.7088ZM35.2071 7.80057L34.1977 9.11586C34.0754 9.51351 34.2895 9.94174 34.8401 9.7888L35.3601 9.11586L35.8189 7.95351L35.2071 7.80057ZM34.1671 8.7488L35.0542 7.61704C35.0236 7.49468 35.0236 7.43351 35.0848 7.37233C35.1154 7.31116 35.0848 7.24998 34.993 7.15821C34.9319 7.00527 34.7789 6.79116 34.5342 6.51586C34.3201 6.6688 34.1672 7.1888 34.0754 8.07586L34.1671 8.7488ZM32.6683 12.7864L33.9836 11.9912L33.1883 11.3488L32.6377 12.7253L32.6683 12.7864ZM34.5648 16.3041L34.2589 12.1441L33.3719 12.7253L33.1883 16.0288L34.5648 16.3041ZM35.0236 9.94174C34.8095 10.37 34.6872 10.7982 34.6566 11.2876C34.6872 12.297 34.7483 12.97 34.7789 13.3064C34.6871 13.5512 34.8401 13.8265 34.8707 14.7441V16.1512C34.9013 16.8241 34.9624 17.4359 35.1154 18.0782C35.2071 18.2312 35.3295 18.5065 35.4824 18.9041L35.666 18.3535C35.4824 17.8335 35.3295 17.6806 35.2989 17.3441L35.1766 16.3041V15.5088C35.1766 15.3253 35.4213 15.2641 35.4213 15.5088C35.4213 15.5088 35.4213 15.6923 35.4213 15.937C35.4213 16.1817 35.4824 16.8547 35.513 17.1912C35.5436 17.5276 35.7577 17.9865 35.7577 17.9865L35.9719 17.2829L36.4001 9.66645C36.2777 9.66645 36.0636 9.60527 36.0636 9.60527C35.9107 9.57469 35.6354 9.60527 35.2683 9.69704L35.0236 9.94174ZM37.1342 9.57469L36.6142 9.63586L36.0942 18.0782L36.7366 20.617C37.1648 20.5559 37.6848 20.5253 38.2966 20.5253C38.7248 20.4641 38.633 20.097 38.2048 20.2194C37.8071 20.3112 37.6236 20.1888 37.6848 19.8829L37.593 17.0688C37.6236 16.5794 37.593 16.1206 37.5013 15.7229C37.4095 15.3253 37.5013 14.9276 37.5013 14.4688C37.5013 13.9182 37.4095 13.4594 37.4095 12.8782C37.3789 10.5535 37.6542 10.0335 37.1342 9.57469ZM37.4707 9.51351C37.4095 9.5441 37.6848 9.84998 37.6542 10.37L37.6236 12.1135C37.6236 12.1135 37.6236 13.4288 37.6848 13.7653C37.7766 14.1017 37.6848 15.1723 37.6848 15.1723C37.6848 15.1723 37.6848 15.6923 37.7766 15.9065C37.8683 16.1512 37.8071 17.0688 37.8071 17.3747L37.8989 19.8217C37.8989 19.8217 38.6636 19.6994 39.0001 19.2712C39.3366 18.8123 39.7342 18.9041 39.7342 18.9041L39.0001 17.5582C39.0001 17.5582 38.5413 16.9159 38.4801 16.7017C38.4189 16.457 38.3577 15.3559 38.3577 15.3559V14.0406L38.266 13.2147L38.4495 11.5935L38.4801 10.6147L38.3577 10.2476C38.0519 10.0335 37.6542 9.94174 37.4707 9.51351ZM39.7648 11.3182L40.866 12.1747L40.4377 11.0123L39.7648 11.3182ZM39.5201 11.4712L39.2142 12.297L40.3766 13.5817L39.673 11.6241L39.5201 11.4712ZM39.4589 13.3064L38.8471 16.1817L40.0095 15.937V14.2853L40.1013 13.6429L39.4589 13.3064ZM35.9107 18.17L35.1766 20.4641L36.4919 20.6782L35.9107 18.17ZM36.2471 5.6288C35.8189 5.44527 35.5742 5.16998 35.5742 4.83351C35.2377 4.37468 35.4519 4.0688 35.8495 4.09939C36.2777 4.00763 36.6142 4.16057 36.8589 4.55821C36.8589 4.61939 36.8895 4.71116 36.9201 4.77233C36.9813 4.80292 37.0424 4.89468 37.073 5.04763C37.1342 5.1088 37.226 5.07821 37.2872 5.26174C37.2872 5.44527 37.5013 5.50645 37.5319 5.68998C37.5013 5.41469 37.6542 5.26174 37.4095 5.07821C37.1648 4.61939 37.0424 4.28292 36.9813 4.09939C36.5836 3.48763 35.7883 3.48763 35.5742 3.73233C35.1766 3.94645 35.0542 4.31351 35.2377 4.83351C35.2989 4.92527 35.3295 4.98645 35.3295 5.07821C35.3295 5.23116 35.3907 5.35351 35.6048 5.50645C35.8801 5.78174 36.0636 5.81233 36.2471 5.6288ZM41.5695 50.8076C43.1295 50.1653 44.5977 49.6759 46.2801 50.3488C47.2895 50.7465 48.0542 50.9606 48.6966 50.9606C49.5836 50.9606 50.1648 50.777 50.7766 50.5323C51.6636 50.1653 52.4895 49.9817 53.2848 50.0429C53.4071 49.7676 53.5295 49.4923 53.6518 49.1865C52.4283 48.9417 51.3883 49.2476 50.3789 49.6759C48.6048 50.2876 47.7177 50.0123 45.913 49.3394C43.466 48.5135 42.3342 49.89 40.7742 50.0123L40.8048 50.2876L41.5695 50.8076ZM43.4354 52.0617C45.026 51.6947 45.8213 52.0617 47.1366 52.5512C48.146 52.8876 49.033 53.0712 50.4707 52.5512C51.5107 52.1535 51.9083 52.0617 52.2448 52.0006C52.4589 51.6641 52.6424 51.3582 52.826 50.9912C50.9907 51.1441 50.5013 51.9088 48.666 51.9088C47.1977 51.8782 46.2801 51.0217 44.6895 50.9606C44.0166 50.9606 43.2824 51.1135 42.5177 51.4194L43.4354 52.0617ZM46.8307 54.2947C48.0848 54.7841 49.1554 54.8759 50.5013 54.3865C50.8683 53.9582 51.2048 53.53 51.5107 53.1017C51.2048 53.1935 50.9601 53.2853 50.4095 53.4994C49.3083 53.897 48.2377 53.9276 46.953 53.4382C46.1883 53.1323 45.4848 52.8876 44.6283 52.8876L46.8307 54.2947ZM49.3389 55.61C48.666 55.6712 48.1766 55.6406 47.5036 55.457V57.2006C48.146 56.6806 48.7577 56.1606 49.3389 55.61ZM54.233 47.4123C51.6636 46.77 51.1436 47.9935 49.033 48.1464C47.3201 48.2688 45.8824 47.2288 44.4142 47.2288C43.2519 47.2288 41.8448 48.1159 40.6519 48.1464L40.713 49.0947C41.2024 49.0335 41.9366 48.8194 42.946 48.4217C44.5366 47.81 45.9742 48.3912 46.5248 48.6359C48.6048 49.4617 49.5836 49.0335 51.2966 48.4217C52.153 48.1159 53.0401 48.0853 53.9577 48.33C54.1413 47.7794 54.233 47.4123 54.233 47.4123ZM22.8495 55.61C23.4919 56.2523 24.746 57.2312 24.746 57.2312V55.457C24.1036 55.6406 23.5224 55.6406 22.8495 55.61ZM18.2613 48.33C19.1789 48.0853 20.0966 48.1159 20.953 48.4217C22.6354 49.0335 23.6142 49.4617 25.7248 48.6359C26.2754 48.4217 27.713 47.8406 29.3036 48.4217C30.313 48.7888 31.0471 49.0029 31.5366 49.0947L31.5977 48.1464C30.3742 48.1159 28.9977 47.2288 27.8354 47.2288C26.3671 47.2288 24.9295 48.2688 23.2166 48.1464C21.106 47.9935 20.586 46.8312 18.0166 47.4735C17.986 47.4735 18.1389 47.9629 18.2613 48.33ZM18.9648 50.0429C19.7295 49.9817 20.586 50.1653 21.473 50.5323C22.0848 50.777 22.666 50.9606 23.553 50.9606C24.1954 50.9912 24.9601 50.777 25.9695 50.3488C27.6213 49.6759 29.0589 50.1347 30.5883 50.7464L31.4448 50.1653L31.4754 49.9817C29.9154 49.89 28.7836 48.5135 26.3366 49.3088C24.5319 49.9817 23.6754 50.2264 21.8707 49.6453C20.8613 49.217 19.8213 48.8806 18.5977 49.1559C18.7201 49.4923 18.8424 49.7676 18.9648 50.0429ZM27.5601 52.8264C26.7342 52.857 26.0307 53.1017 25.2966 53.377C24.0119 53.8664 22.9719 53.8359 21.8401 53.4382C21.2895 53.2241 21.0142 53.1323 20.7083 53.0406C21.0142 53.4994 21.3813 53.9276 21.7177 54.3559C23.033 54.8147 24.1648 54.7535 25.4189 54.2641L27.5601 52.8264ZM19.9742 51.97C20.3107 52.0312 20.7695 52.1229 21.7789 52.5206C23.2166 53.0406 24.073 52.857 25.113 52.5206C26.3977 52.0617 27.193 51.6947 28.7224 52.0312L29.6707 51.3888C28.9366 51.0829 28.233 50.9606 27.5907 50.9606C26.0001 51.0217 25.113 51.8476 23.6142 51.9088C21.7483 51.9088 21.2589 51.1441 19.4236 50.9912C19.6071 51.3276 19.7907 51.6335 19.9742 51.97ZM54.5389 46.3112C54.8754 44.8123 55.0283 43.2217 54.9671 41.6006C54.7224 31.2617 46.8307 24.2876 37.9907 23.3394L37.746 23.37C38.2048 22.7582 38.2354 21.9629 37.8377 21.3817C37.5624 21.9935 36.9813 22.33 36.3389 22.3606C35.6966 22.3606 35.1766 22.0241 34.9013 21.5653C34.626 22.0547 34.626 22.697 35.0848 23.2782C25.8777 23.8288 17.5883 30.8947 17.1601 41.9676C17.1601 43.4664 17.3436 44.9041 17.6801 46.3112H31.6895L32.1789 38.6335H26.9789L24.7154 35.2994L25.633 30.8335H32.7295L33.1577 24.6547H39.2142L39.6119 30.8029H46.9836L47.5954 35.2994L45.3624 38.6029H40.1013L40.5907 46.2806L54.5389 46.3112ZM44.6589 12.3888C58.2095 15.9065 67.906 29.5488 67.233 43.9559C66.193 60.8712 52.7954 72.8617 35.9719 73.2594C19.4848 73.2288 6.17891 59.9229 5.29186 44.5065C4.55774 26.337 16.6401 15.05 28.6919 12.1747C28.7836 4.52763 32.3013 0.184096 36.553 0.00056699C40.9272 -0.0606095 44.8424 4.83351 44.6589 12.3888ZM28.7836 13.2759C15.9671 16.2429 5.23068 29.5488 6.42362 44.5065C7.55539 58.6382 18.9954 71.8217 35.9719 72.1582C51.0213 71.9441 64.9695 61.33 66.0707 43.8029C66.8354 29.3653 57.4142 17.3441 44.5671 13.4594C44.1695 17.5276 42.6095 20.5253 39.9483 22.5441C48.9107 24.1959 55.3648 31.69 56.0989 41.6617C56.2824 53.4382 47.2283 61.85 36.3389 62.1559C25.1436 62.4006 15.753 52.9794 16.0589 41.9064C16.426 30.8029 24.073 23.737 33.3107 22.3912C30.7107 20.5253 29.2119 17.497 28.7836 13.2759ZM46.8001 57.69V55.1817L40.1013 50.5629L39.306 38.0217H44.873L46.8001 35.1465L46.2801 31.4147H38.8777L38.4801 25.3582H33.7389L33.3413 31.4147H26.2142L25.4495 35.1159L27.4071 37.9912H32.9436L32.1483 50.5323L25.4495 55.1512V57.7206C25.6636 57.8429 25.8471 57.9959 26.0613 58.1182V56.0076L31.506 60.2594V60.4123L32.1483 60.5653V60.4123L36.186 57.9959L40.1319 60.3512V60.5653C40.3766 60.5041 40.6213 60.4429 40.8354 60.3817V60.2594L46.2495 55.9464V58.0264C46.433 57.9347 46.6166 57.8123 46.8001 57.69ZM34.1977 27.9888L34.3813 26.0006H37.226L34.1977 27.9888ZM34.9319 28.2947L37.9295 26.2759L38.0824 28.2947H34.9319ZM34.9013 28.9065H38.0824L38.266 31.1088L34.9013 28.9065ZM34.1671 29.1817L37.5013 31.3535H33.953L34.1671 29.1817ZM37.5624 32.057L33.8001 34.4735L33.953 32.057H37.5624ZM34.5648 34.7794L38.3271 32.2712L38.4801 34.7794H34.5648ZM34.4424 35.4217H38.5107L38.6942 38.0217L34.4424 35.4217ZM33.7083 35.6665L37.9601 38.297H33.4942L33.7083 35.6665ZM38.0213 38.9394L33.3107 41.8759L33.5248 38.9394H38.0213ZM34.1671 42.0594L38.7248 39.1535L38.9389 42.0594H34.1671ZM34.1671 42.8241H39.0001L39.1836 45.8217L34.1671 42.8241ZM33.2189 43.0076L38.4801 46.097H33.066L33.2189 43.0076ZM38.4495 46.8006L32.7601 50.1347L33.066 46.8006H38.4495ZM33.586 50.4712L39.306 47.0147L39.4895 50.4712H33.586ZM33.5554 51.0523H39.5507L39.7648 54.6923L33.5554 51.0523ZM32.7295 51.2665L38.9389 54.9676H32.4848L32.7295 51.2665ZM33.2801 55.61H39.0001L36.0942 57.3229L33.2801 55.61ZM32.4236 55.8547L35.4824 57.69L32.2095 59.5864L32.4236 55.8547ZM36.7977 57.6594L39.8871 55.8853L40.1013 59.617L36.7977 57.6594ZM26.6424 55.61H31.8119L31.5366 59.617L26.6424 55.61ZM26.7342 54.9676L32.1177 51.3888L31.8119 54.9676H26.7342ZM40.1624 51.4194L45.4848 54.9676H40.4072L40.1624 51.4194ZM40.4989 55.61H45.6683L40.8048 59.5559L40.4989 55.61ZM26.2448 34.3206L26.7036 32.057H29.2119L26.2448 34.3206ZM30.833 32.057H33.3107L33.1883 34.3817L30.833 32.057ZM30.2824 32.3935L32.6683 34.7488H29.8848L30.2824 32.3935ZM29.6707 32.4241L29.3036 34.7488H26.673L29.6707 32.4241ZM26.8871 35.3912H29.3036L29.8236 37.0735L26.8871 35.3912ZM26.7648 36.0029L29.2119 37.41H27.713L26.7648 36.0029ZM30.0989 35.85L32.3013 37.3794H30.5883L30.0989 35.85ZM30.466 35.3912H33.0966L32.9742 37.1347L30.466 35.3912ZM39.153 35.3912H41.753L39.2754 37.1041L39.153 35.3912ZM40.0095 37.41L42.1813 35.85L41.6613 37.41H40.0095ZM45.3624 35.3912L42.426 37.0735L42.946 35.3912H45.3624ZM43.1295 37.3794L45.546 35.9723L44.5977 37.3794H43.1295ZM38.9695 32.3935L41.8754 34.7488H39.1224L38.9695 32.3935ZM39.4589 32.0265H41.9977L42.3342 34.3512L39.4589 32.0265ZM42.6095 32.0265H45.3013L42.946 34.3817L42.6095 32.0265ZM43.466 34.7794L45.8213 32.3935L46.1577 34.7794H43.466Z" fill="#646363"/>
<path d="M4.09882 41.3252C4.09882 41.6005 4.06824 41.8452 4.00706 42.0594C3.94588 42.2735 3.82353 42.4264 3.70118 42.5793C3.57882 42.7017 3.39529 42.8241 3.21176 42.8852C3.02824 42.9464 2.81412 42.977 2.56941 43.0076L0.122353 43.0993L0.0917647 42.2123L2.47765 42.1205C2.63059 42.1205 2.78353 42.0899 2.87529 42.0594C2.99765 42.0288 3.08941 41.9676 3.15059 41.9064C3.21176 41.8452 3.27294 41.7535 3.30353 41.6617C3.33412 41.5699 3.33412 41.4782 3.33412 41.3558C3.33412 41.1417 3.24235 40.9582 3.12 40.8358C2.99765 40.7135 2.75294 40.6523 2.44706 40.6523L0.0611765 40.7441L0 39.8264L2.44706 39.7346C2.69176 39.7346 2.90588 39.7652 3.08941 39.7958C3.27294 39.857 3.45647 39.9488 3.60941 40.0711C3.76235 40.1935 3.85412 40.377 3.94588 40.5605C4.03765 40.8052 4.06824 41.0499 4.09882 41.3252ZM4.31294 35.7888L4.40471 35.0546L0.489412 34.5652L0.367059 35.4523L2.69176 35.7276C2.47765 35.8499 2.23294 35.9723 1.98824 36.0946C1.74353 36.217 1.52941 36.3394 1.28471 36.4923C1.07059 36.6146 0.856471 36.7676 0.642353 36.8899C0.428235 37.0123 0.275294 37.1346 0.122353 37.257L0.0305882 37.9911L3.94588 38.4805L4.03765 37.5935L1.46824 37.2876C1.89647 37.0123 2.35529 36.737 2.81412 36.4923C3.36471 36.217 3.85412 36.0029 4.31294 35.7888ZM0.887059 32.7605L4.74118 33.7088L4.95529 32.8523L1.10118 31.9041L0.887059 32.7605ZM5.68941 30.4052L5.99529 29.6099C5.75059 29.3346 5.47529 29.0899 5.2 28.8146C4.92471 28.5394 4.64941 28.2946 4.34353 28.0499C4.06824 27.8052 3.79294 27.5605 3.51765 27.3464C3.27294 27.1323 3.02824 26.9182 2.81412 26.7652L2.47765 27.6523C2.66118 27.8052 2.87529 27.9582 3.08941 28.1417C3.30353 28.3252 3.51765 28.5088 3.73176 28.6617C3.94588 28.8452 4.16 28.9982 4.34353 29.1817C4.52706 29.3346 4.71059 29.4876 4.83294 29.6099C4.64941 29.6099 4.40471 29.6405 4.16 29.6405C3.91529 29.6405 3.64 29.6405 3.36471 29.6405C3.08941 29.6405 2.81412 29.6405 2.53882 29.6405C2.26353 29.6405 1.98824 29.6405 1.77412 29.6099L1.43765 30.5276C1.71294 30.5276 2.01882 30.5276 2.35529 30.5276C2.69176 30.5276 3.05882 30.5276 3.42588 30.5276C3.79294 30.5276 4.19059 30.497 4.55765 30.497C4.95529 30.4664 5.32235 30.4358 5.68941 30.4052ZM6.97412 27.2852L8.28941 24.8076L7.64706 24.4405L6.72941 26.1229L5.87294 25.6946L6.60706 24.2876L5.96471 23.9511L5.23059 25.3582L4.55765 24.9911L5.41412 23.4311L4.74118 23.0641L3.48706 25.4193L6.97412 27.2852ZM6.33177 20.5864C6.24 20.7088 6.14824 20.8617 6.02588 21.0452C5.90353 21.2288 5.81176 21.4123 5.75059 21.5652L8.87059 23.8899L9.39059 23.1558L8.22824 22.2994L8.47294 21.9323C8.59529 21.9323 8.71765 21.9323 8.84 21.9323C8.96235 21.9323 9.11529 21.9323 9.26824 21.9629C9.42118 21.9629 9.57412 21.9935 9.72706 21.9935C9.88 22.0241 10.0329 22.0241 10.1859 22.0546L10.7671 21.2594C10.6141 21.2288 10.4612 21.1982 10.2776 21.1676C10.0941 21.137 9.94118 21.137 9.78824 21.1064C9.63529 21.1064 9.48235 21.1064 9.32941 21.1064C9.17647 21.1064 9.02353 21.1064 8.90118 21.1064C8.96235 20.8617 8.96235 20.617 8.90118 20.4335C8.84 20.2194 8.68706 20.0358 8.47294 19.8829C8.10588 19.6076 7.73882 19.5464 7.40235 19.6994C7.00471 19.7911 6.66824 20.097 6.33177 20.5864ZM6.97412 20.9841C7.12706 20.7394 7.31059 20.617 7.46353 20.5252C7.61647 20.4641 7.76941 20.4641 7.92235 20.5864C8.07529 20.7088 8.16706 20.8617 8.13647 21.0146C8.10588 21.1676 8.01412 21.4123 7.83059 21.657L7.64706 21.9017L6.79059 21.2594C6.82118 21.2288 6.85176 21.1676 6.85176 21.137C6.88235 21.1064 6.91294 21.0452 6.97412 20.9841ZM11.7153 19.2405C11.5318 19.4241 11.3788 19.5464 11.2259 19.6382C11.0729 19.7299 10.92 19.7911 10.7976 19.8217L11.1341 20.4946C11.1953 20.4641 11.2565 20.4641 11.3482 20.4335C11.44 20.4029 11.5012 20.3417 11.6235 20.3111C11.7153 20.2499 11.8376 20.1888 11.9294 20.097C12.0518 20.0052 12.1435 19.9135 12.2659 19.7605C12.6329 19.3935 12.8165 19.0264 12.8471 18.6899C12.8776 18.3535 12.7553 18.0782 12.48 17.8029C12.3271 17.6805 12.2047 17.5888 12.0824 17.5276C11.96 17.4664 11.8071 17.4358 11.6847 17.4664C11.5318 17.4664 11.3788 17.497 11.2259 17.5582C11.0729 17.6194 10.8894 17.6805 10.7059 17.8029C10.6141 17.8641 10.5224 17.8946 10.4612 17.9252C10.3694 17.9558 10.3082 17.9864 10.2471 18.017C10.1859 18.0476 10.0941 18.0476 10.0635 18.017C10.0024 18.017 9.94118 17.9864 9.91059 17.9252C9.81882 17.8335 9.78824 17.7417 9.81882 17.6499C9.84941 17.5276 9.91059 17.4052 10.0635 17.2523C10.1859 17.0994 10.3082 17.0076 10.4612 16.9464C10.5835 16.8852 10.7059 16.8241 10.8282 16.7935L10.4 16.1205C10.2776 16.1511 10.0941 16.2429 9.94118 16.3346C9.75765 16.4264 9.57412 16.5794 9.39059 16.7629C9.23765 16.9158 9.11529 17.0994 9.02353 17.2523C8.93176 17.4052 8.90118 17.5888 8.87059 17.7417C8.87059 17.8946 8.87059 18.0476 8.93177 18.2005C8.99294 18.3535 9.08471 18.4758 9.20706 18.6288C9.32941 18.7511 9.48235 18.8429 9.60471 18.8735C9.72706 18.9041 9.88 18.9346 10.0024 18.9041C10.1247 18.9041 10.2776 18.8429 10.4 18.8123C10.5224 18.7511 10.6447 18.6899 10.7671 18.6288C11.0424 18.4758 11.2565 18.3841 11.4094 18.3535C11.5624 18.3229 11.6847 18.3535 11.7765 18.4452C11.8071 18.4758 11.8682 18.537 11.8682 18.5676C11.8988 18.6288 11.8988 18.6594 11.8988 18.7205C11.8988 18.7817 11.8682 18.8429 11.8376 18.9346C11.8682 19.0876 11.8071 19.1488 11.7153 19.2405ZM11.5624 14.8358L14.1318 17.8335L14.8047 17.2523L12.2353 14.2546L11.5624 14.8358ZM17.6188 12.7558C17.4047 12.4499 17.1906 12.2358 16.9765 12.0829C16.7318 11.9299 16.4871 11.8382 16.2424 11.8076C15.9976 11.777 15.7224 11.8076 15.4471 11.8994C15.1718 11.9911 14.8965 12.1441 14.6212 12.3276C14.4988 12.4194 14.3459 12.5417 14.1624 12.6641C13.9788 12.7864 13.8259 12.9394 13.6729 13.0923L15.8447 16.2735C16.0282 16.1817 16.2424 16.0899 16.4259 15.9982C16.6094 15.8758 16.7624 15.7841 16.9153 15.6923C17.1906 15.5088 17.4353 15.2946 17.6188 15.0499C17.8024 14.8358 17.9247 14.5911 17.9859 14.3464C18.0471 14.1017 18.0471 13.8264 18.0165 13.5817C17.9553 13.337 17.8329 13.0311 17.6188 12.7558ZM16.2118 15.2335L14.8047 13.1535C14.8353 13.1229 14.8965 13.0923 14.9576 13.0311C15.0188 13.0005 15.0494 12.9699 15.1106 12.9088C15.4776 12.6641 15.8141 12.5723 16.0894 12.6335C16.3647 12.6946 16.64 12.9088 16.8847 13.2452C17.0988 13.5817 17.1906 13.8876 17.1294 14.1935C17.0682 14.4994 16.8541 14.7746 16.4871 15.0194C16.4259 15.0499 16.3647 15.1111 16.3341 15.1417C16.2729 15.2029 16.2424 15.2335 16.2118 15.2335ZM22.0541 12.7558L22.9106 12.3582C22.6047 12.0523 22.2988 11.7464 22.0235 11.4711C21.7482 11.1958 21.4729 10.9511 21.2282 10.7064C20.9835 10.4617 20.7388 10.2476 20.4941 10.0641C20.2494 9.84994 20.0047 9.66641 19.7906 9.48288L19.0259 9.84994C19.0259 10.1558 19.0259 10.4617 19.0565 10.7676C19.0565 11.0735 19.0871 11.4099 19.1176 11.7464C19.1482 12.0829 19.1788 12.4499 19.2094 12.8476C19.24 13.2452 19.3012 13.6429 19.3318 14.1017L20.1576 13.7041C20.1271 13.5511 20.1271 13.4288 20.0965 13.2758C20.0659 13.1229 20.0659 12.9699 20.0353 12.817L21.4424 12.1441C21.5647 12.2664 21.6565 12.3582 21.7788 12.4805C21.84 12.5417 21.9318 12.6335 22.0541 12.7558ZM19.76 10.4617C19.7906 10.4923 19.8824 10.5535 19.9435 10.6452C20.0353 10.7064 20.0965 10.7982 20.2188 10.8899C20.3106 10.9817 20.4329 11.1041 20.5553 11.1958C20.6776 11.3182 20.8 11.4405 20.9224 11.5629L19.8824 12.0523C19.8518 11.8688 19.8518 11.6852 19.8212 11.5323C19.8212 11.3794 19.7906 11.2264 19.7906 11.0735C19.7906 10.9205 19.76 10.7982 19.76 10.7064C19.76 10.6146 19.76 10.5229 19.76 10.4617ZM26.52 9.11582C26.4282 8.77935 26.2753 8.50406 26.0918 8.28994C25.9082 8.07582 25.6941 7.92288 25.48 7.83112C25.2353 7.73935 24.9906 7.67817 24.6847 7.70876C24.4094 7.70876 24.1035 7.76994 23.7671 7.8617C23.6141 7.92288 23.4306 7.98406 23.2165 8.04523C23.0024 8.137 22.8188 8.19817 22.6353 8.32053L23.7671 12.0217C23.9812 11.9911 24.1953 11.9605 24.3788 11.9299C24.5929 11.8688 24.7765 11.8382 24.9294 11.777C25.2659 11.6852 25.5412 11.5323 25.7859 11.3794C26.0306 11.2264 26.2141 11.0429 26.3671 10.7982C26.52 10.5841 26.5812 10.3394 26.6118 10.0641C26.6424 9.75817 26.6118 9.45229 26.52 9.11582ZM24.4094 11.0735L23.6753 8.68759C23.7365 8.657 23.7976 8.62641 23.8588 8.62641C23.92 8.59582 23.9812 8.59582 24.0424 8.56523C24.4706 8.44288 24.8071 8.44288 25.0824 8.59582C25.3271 8.74876 25.5412 9.02406 25.6635 9.4217C25.7859 9.78876 25.7553 10.1252 25.6329 10.4005C25.48 10.6758 25.2047 10.8899 24.7765 11.0123C24.7153 11.0429 24.6541 11.0429 24.5929 11.0735C24.5012 11.0429 24.4706 11.0735 24.4094 11.0735Z" fill="#646363"/>
<path d="M48.513 12.2357C47.9012 12.0522 47.473 11.7157 47.2589 11.2875C47.0448 10.8592 47.0448 10.3086 47.2283 9.66629C47.32 9.36041 47.473 9.08512 47.6259 8.871C47.8095 8.65688 47.993 8.50394 48.2377 8.38159C48.4518 8.25924 48.6965 8.19806 48.9718 8.19806C49.2471 8.19806 49.4918 8.22865 49.7671 8.32041C49.92 8.38159 50.073 8.44276 50.1953 8.50394C50.3177 8.56512 50.4095 8.62629 50.5012 8.68747C50.593 8.74865 50.6542 8.80982 50.7153 8.871C50.7765 8.93218 50.8071 8.96277 50.8377 8.99335L50.3789 9.60512C50.2871 9.51335 50.1648 9.42159 50.0118 9.32982C49.8589 9.23806 49.7059 9.14629 49.5224 9.08512C49.4 9.05453 49.2471 9.02394 49.1248 9.02394C48.9718 9.02394 48.8495 9.05453 48.7271 9.11571C48.6048 9.17688 48.4824 9.26865 48.3906 9.42159C48.2989 9.54394 48.2071 9.72747 48.1153 9.94159C48.0542 10.1251 48.0236 10.2781 48.0236 10.4616C48.0236 10.6145 48.0236 10.7675 48.0848 10.9204C48.1459 11.0428 48.2071 11.1651 48.3295 11.2875C48.4518 11.4098 48.6048 11.471 48.7883 11.5322C48.9106 11.5628 49.033 11.5934 49.1248 11.6239C49.2165 11.6545 49.3083 11.6545 49.4 11.6545C49.4918 11.6545 49.553 11.6545 49.6142 11.6545C49.6753 11.6545 49.7365 11.6545 49.7977 11.6239L49.8283 12.3886C49.6753 12.4192 49.4918 12.4498 49.2471 12.4192C49.033 12.3581 48.7883 12.3275 48.513 12.2357ZM53.2236 14.1934L54.08 14.6216C54.1412 14.1628 54.2024 13.7651 54.233 13.3675C54.2636 12.9698 54.3248 12.6334 54.3553 12.2663C54.3859 11.9298 54.4165 11.5934 54.4165 11.2875C54.4471 10.9816 54.4471 10.6757 54.4471 10.3698L53.6824 9.97218C53.4377 10.1557 53.193 10.3392 52.9483 10.5534C52.7036 10.7675 52.4589 10.9816 52.1836 11.1957C51.9389 11.4098 51.6636 11.6545 51.3577 11.9298C51.0824 12.2051 50.7765 12.4804 50.44 12.7863L51.2659 13.2145C51.3577 13.1228 51.4801 13.0004 51.5718 12.9086C51.6942 12.8169 51.7859 12.6945 51.9083 12.6028L53.2848 13.3063C53.2542 13.4592 53.2542 13.6122 53.2236 13.7651C53.2542 13.9181 53.2236 14.071 53.2236 14.1934ZM53.6518 10.9816C53.6518 11.0428 53.6518 11.1345 53.6212 11.2263C53.6212 11.3181 53.5906 11.4404 53.5906 11.5934C53.5906 11.7463 53.56 11.8992 53.5295 12.0522C53.4989 12.2051 53.4989 12.3886 53.4683 12.5722L52.4589 12.0522C52.5812 11.9298 52.7342 11.8075 52.8565 11.6851C52.9789 11.5628 53.1012 11.471 53.193 11.3792C53.2848 11.2875 53.3765 11.1957 53.4683 11.1345C53.5295 11.0734 53.5906 11.0428 53.6518 10.9816ZM59.1271 13.3369L56.4353 11.471L56.0071 12.0828L56.9859 12.7557L55.1812 15.3863L55.9153 15.9063L57.72 13.2757L58.6989 13.9486L59.1271 13.3369ZM61.6659 18.2616C61.9106 18.0169 62.0636 17.7722 62.1553 17.4969C62.2471 17.2522 62.3083 16.9769 62.2777 16.7322C62.2777 16.4875 62.2165 16.2428 62.0942 16.0286C61.9718 15.8145 61.8189 15.6004 61.6353 15.4169C61.4518 15.2334 61.2377 15.111 60.993 14.9886C60.7483 14.8969 60.5036 14.8357 60.2589 14.8357C60.0142 14.8357 59.7695 14.8969 59.4942 15.0192C59.2495 15.1416 59.0048 15.3251 58.76 15.5698C58.5153 15.8145 58.3624 16.0592 58.2706 16.3345C58.1789 16.5792 58.1177 16.8545 58.1483 17.0992C58.1483 17.3439 58.24 17.5886 58.3318 17.8028C58.4542 18.0169 58.6071 18.231 58.7906 18.4145C59.0048 18.5981 59.2189 18.751 59.4636 18.8428C59.7083 18.9345 59.953 18.9957 60.1977 18.9957C60.4424 18.9957 60.6871 18.9345 60.9318 18.8122C61.1765 18.6898 61.4212 18.5063 61.6659 18.2616ZM59.4636 16.1816C59.5859 16.0286 59.7389 15.9369 59.8612 15.8451C60.0142 15.7534 60.1365 15.7228 60.2895 15.6922C60.4424 15.6616 60.5648 15.6922 60.7177 15.7228C60.84 15.7534 60.993 15.8451 61.1153 15.9675C61.2377 16.0898 61.3295 16.2122 61.3906 16.3345C61.4518 16.4569 61.4518 16.6098 61.4518 16.7628C61.4518 16.9157 61.3906 17.0381 61.3295 17.191C61.2683 17.3439 61.1459 17.4969 61.0236 17.6192C60.9012 17.7722 60.7483 17.8639 60.6259 17.9557C60.473 18.0475 60.3506 18.0781 60.1977 18.1086C60.0448 18.1392 59.9224 18.1086 59.7695 18.0781C59.6471 18.0475 59.4942 17.9557 59.3718 17.8334C59.2495 17.711 59.1577 17.5886 59.0965 17.4663C59.0353 17.3439 59.0353 17.191 59.0353 17.0381C59.0353 16.8851 59.0965 16.7628 59.1577 16.6098C59.2189 16.4875 59.3106 16.3345 59.4636 16.1816ZM62.7365 15.2945L62.8589 14.6216L61.513 14.4075L61.4212 14.9275L62.7365 15.2945ZM63.3177 22.1769L62.2165 20.8004L64.6942 18.7816L64.1436 18.0781L61.0542 20.5557L62.7059 22.6051L63.3177 22.1769ZM66.5906 21.351L63.3177 23.5534L63.8071 24.2875L67.1106 22.1157L66.5906 21.351ZM65.3059 27.1016C65.4589 27.3769 65.6118 27.591 65.7648 27.7745C65.9177 27.9581 66.0706 28.0804 66.193 28.1416L66.713 27.591C66.6824 27.5604 66.6212 27.5298 66.56 27.4686C66.4989 27.4381 66.4683 27.3769 66.4071 27.3157C66.3459 27.2545 66.2848 27.1934 66.2236 27.1016C66.1624 27.0098 66.1012 26.9181 66.04 26.7957C65.9483 26.6122 65.8871 26.4286 65.8871 26.2757C65.8871 26.1228 65.9177 25.9698 65.9483 25.8475C66.0095 25.7251 66.1012 25.6028 66.2236 25.4804C66.3459 25.3581 66.4989 25.2663 66.6518 25.1745C66.8659 25.0522 67.0495 24.991 67.2024 24.991C67.3859 24.9604 67.5389 24.991 67.6612 25.0216C67.7836 25.0522 67.9059 25.1439 68.0283 25.2357C68.12 25.3275 68.2118 25.4498 68.273 25.5722C68.3648 25.7557 68.4259 25.9392 68.4565 26.0922C68.4871 26.2451 68.5177 26.3981 68.5177 26.551L69.2824 26.4286C69.2824 26.3981 69.2824 26.3369 69.2824 26.2451C69.2824 26.1534 69.2824 26.0922 69.2518 25.9698C69.2212 25.8781 69.1906 25.7557 69.16 25.6028C69.1295 25.4804 69.0683 25.3275 68.9765 25.1745C68.8542 24.9298 68.6706 24.7157 68.4871 24.5322C68.3036 24.3486 68.0589 24.2263 67.8448 24.1651C67.6 24.1039 67.3553 24.0734 67.08 24.1039C66.8048 24.1345 66.5295 24.2263 66.2236 24.3792C65.6424 24.6851 65.2753 25.0828 65.1224 25.5416C64.9389 26.0004 65.0306 26.5204 65.3059 27.1016ZM67.4165 31.7816L67.753 32.6686C68.0895 32.3934 68.4259 32.1181 68.7012 31.8734C69.0071 31.6286 69.2824 31.3839 69.5271 31.1392C69.7718 30.8945 70.0165 30.6804 70.2612 30.4663C70.4753 30.2522 70.72 30.0381 70.9036 29.8239L70.5977 29.0287C70.2918 28.9981 69.9859 28.9675 69.68 28.9675C69.3742 28.9369 69.0377 28.9369 68.7012 28.9369C68.3648 28.9369 67.9977 28.9369 67.6 28.9369C67.2024 28.9369 66.8048 28.9369 66.3459 28.9369L66.6518 29.7934C66.8048 29.7934 66.9577 29.7934 67.1106 29.7934C67.2636 29.7934 67.4165 29.7934 67.5695 29.7934L68.0895 31.231C67.9671 31.3228 67.8448 31.4145 67.7224 31.5369C67.6306 31.5981 67.5083 31.6898 67.4165 31.7816ZM69.8942 29.7322C69.8636 29.7628 69.8024 29.8239 69.7106 29.8851C69.6189 29.9463 69.5271 30.0381 69.4353 30.1298C69.3436 30.2216 69.2212 30.3134 69.0989 30.4357C68.9765 30.5581 68.8236 30.6498 68.7012 30.7722L68.3036 29.7016C68.4871 29.7016 68.6706 29.7016 68.8236 29.7016C68.9765 29.7016 69.1295 29.7016 69.2824 29.7016C69.4353 29.7016 69.5577 29.7016 69.6495 29.7016C69.7718 29.7322 69.833 29.7322 69.8942 29.7322ZM70.9648 38.511C71.3318 38.4498 71.6071 38.3581 71.8518 38.2051C72.0965 38.0522 72.28 37.8686 72.4024 37.6545C72.5248 37.4404 72.6165 37.1651 72.6471 36.8898C72.6777 36.6145 72.6471 36.3086 72.6165 35.9722C72.5859 35.8192 72.5553 35.6357 72.4942 35.4216C72.433 35.2075 72.3718 34.9934 72.3106 34.8098L68.5177 35.4522C68.5177 35.6663 68.5177 35.8804 68.5483 36.0945C68.5789 36.3086 68.6095 36.4922 68.6095 36.6451C68.6706 36.9816 68.7624 37.2875 68.8848 37.5628C69.0071 37.8381 69.1906 38.0522 69.3742 38.2051C69.5577 38.3581 69.8024 38.4804 70.0777 38.5416C70.3224 38.5722 70.6283 38.5722 70.9648 38.511ZM69.2824 36.1863L71.76 35.7581C71.7906 35.8192 71.7906 35.8804 71.7906 35.9416C71.7906 36.0028 71.8212 36.0639 71.8212 36.1251C71.8824 36.5534 71.8518 36.8898 71.6683 37.1345C71.4848 37.3792 71.2095 37.5322 70.7812 37.5934C70.3836 37.6545 70.0777 37.5934 69.8024 37.4404C69.5577 37.2569 69.3742 36.951 69.313 36.5228C69.313 36.4616 69.2824 36.3698 69.2824 36.3392C69.313 36.2781 69.313 36.2475 69.2824 36.1863ZM69.0989 40.071L69.2518 42.8851L69.9859 42.8545L69.8942 40.9581L70.8424 40.8969L70.9342 42.4875L71.6683 42.4569L71.5765 40.8663L72.3412 40.8357L72.433 42.6098L73.1671 42.5792L73.0448 39.9181L69.0989 40.071Z" fill="#646363"/>
<path d="M2.69183 53.4381L1.95771 53.6216L1.34595 51.0522L5.20007 50.1039L5.41418 50.9604L2.32477 51.7251L2.69183 53.4381ZM3.39536 57.6898L3.73183 58.5769C4.0683 58.271 4.40477 57.9957 4.68006 57.751C4.95536 57.5063 5.23065 57.2616 5.47536 57.0169C5.72007 56.7722 5.96477 56.5581 6.17889 56.3439C6.39301 56.1298 6.60712 55.8851 6.82124 55.671L6.51536 54.8757C6.20948 54.8451 5.90359 54.8451 5.59771 54.8145C5.29183 54.8145 4.95536 54.7839 4.61889 54.7839C4.28242 54.7839 3.91536 54.7839 3.51771 54.7839C3.12006 54.7839 2.72242 54.8145 2.26359 54.8145L2.60006 55.671C2.75301 55.671 2.90595 55.6404 3.05889 55.6404C3.21183 55.6404 3.36477 55.6404 3.51771 55.6098L4.0683 57.0475C3.94595 57.1392 3.82359 57.231 3.73183 57.3534C3.64006 57.5063 3.51771 57.5981 3.39536 57.6898ZM5.87301 55.5792C5.84242 55.6098 5.78124 55.671 5.68948 55.7628C5.59771 55.8239 5.53654 55.9157 5.41418 56.0075C5.32242 56.0992 5.20007 56.191 5.07771 56.3134C4.95536 56.4357 4.83301 56.5275 4.68006 56.6498L4.28242 55.6098C4.46595 55.6098 4.64948 55.6098 4.80242 55.6098C4.95536 55.6098 5.1083 55.6098 5.26124 55.6098C5.41418 55.6098 5.53654 55.6098 5.6283 55.6098C5.72007 55.5792 5.81183 55.5792 5.87301 55.5792ZM6.54595 62.2169C6.42359 62.0028 6.33183 61.8192 6.27065 61.6357C6.20948 61.4522 6.17889 61.2992 6.17889 61.1769L5.44477 61.3298C5.44477 61.391 5.44477 61.4522 5.47536 61.5439C5.47536 61.6357 5.50595 61.7275 5.53654 61.8192C5.56712 61.9416 5.59771 62.0334 5.65889 62.1863C5.72007 62.3086 5.78124 62.4616 5.87301 62.6145C6.1483 63.0428 6.45418 63.3181 6.76007 63.4404C7.06595 63.5628 7.37183 63.5016 7.7083 63.3181C7.86124 63.2263 7.98359 63.1039 8.07536 63.0122C8.16712 62.8898 8.2283 62.7675 8.25889 62.6451C8.28948 62.4922 8.28948 62.3392 8.28948 62.1863C8.25889 62.0028 8.2283 61.8192 8.19771 61.6051C8.16712 61.5134 8.16712 61.4216 8.13654 61.3298C8.10595 61.2381 8.10595 61.1769 8.10595 61.0851C8.10595 61.0239 8.10595 60.9322 8.13654 60.9016C8.16712 60.8404 8.19771 60.8098 8.25889 60.7486C8.35065 60.6875 8.47301 60.6875 8.56477 60.7181C8.65654 60.7792 8.77889 60.871 8.87065 61.0545C8.96242 61.2075 9.05418 61.3604 9.08477 61.5134C9.11536 61.6663 9.14595 61.7886 9.14595 61.911L9.88006 61.7581C9.88006 61.6051 9.84948 61.4522 9.7883 61.2381C9.72712 61.0545 9.63536 60.8404 9.48242 60.5957C9.36007 60.4122 9.23771 60.2592 9.08477 60.1369C8.93183 60.0145 8.80948 59.9228 8.62595 59.8616C8.47301 59.8004 8.32007 59.8004 8.16712 59.8004C8.01418 59.831 7.86124 59.8922 7.7083 59.9839C7.55536 60.0757 7.43301 60.1981 7.37183 60.3204C7.31065 60.4428 7.24948 60.5651 7.21889 60.7181C7.1883 60.8404 7.1883 60.9934 7.21889 61.1463C7.24948 61.2992 7.24948 61.4216 7.28007 61.5439C7.34124 61.8498 7.40242 62.0639 7.37183 62.2169C7.37183 62.3698 7.31065 62.4616 7.1883 62.5534C7.12712 62.5839 7.09654 62.6145 7.03536 62.6145C6.97418 62.6145 6.94359 62.6145 6.88242 62.5839C6.82124 62.5534 6.76007 62.5228 6.69889 62.4616C6.6683 62.4004 6.60712 62.3086 6.54595 62.2169ZM9.39065 67.2334L10.0024 67.9675C10.2471 67.5698 10.4612 67.2334 10.6448 66.8969C10.8283 66.5604 11.0118 66.2545 11.1954 65.9486C11.3483 65.6428 11.5012 65.3675 11.6542 65.0616C11.8071 64.7863 11.9295 64.511 12.0518 64.2357L11.5012 63.5934C11.1954 63.6545 10.9201 63.7463 10.6142 63.8381C10.3083 63.9298 10.0024 64.0216 9.66595 64.1134C9.32948 64.2051 8.99301 64.3275 8.62595 64.4498C8.25889 64.5722 7.86124 64.7251 7.43301 64.8781L8.01418 65.5816C8.13654 65.5204 8.28948 65.4898 8.44242 65.4286C8.59536 65.3675 8.71771 65.3369 8.87065 65.2757L9.84948 66.4686C9.75771 66.591 9.69654 66.7439 9.60477 66.8663C9.54359 66.9886 9.48242 67.111 9.39065 67.2334ZM11.073 64.4498C11.0424 64.511 11.0118 64.5722 10.9507 64.6639C10.8895 64.7557 10.8283 64.8781 10.7671 65.0004C10.7059 65.1228 10.6142 65.2451 10.553 65.3981C10.4612 65.551 10.3695 65.7039 10.2777 65.8569L9.5436 64.9698C9.72712 64.9086 9.88006 64.8475 10.033 64.7863C10.1859 64.7251 10.3389 64.6945 10.4612 64.6334C10.5836 64.6028 10.7059 64.5416 10.7977 64.511C10.9507 64.511 11.0118 64.4804 11.073 64.4498ZM12.9695 70.7816L13.5201 71.271L16.1812 68.3345L15.5389 67.7534L13.9789 69.4663C14.0095 69.2216 14.0401 68.9769 14.1012 68.7016C14.1318 68.4263 14.1624 68.1816 14.193 67.9063C14.2236 67.6616 14.2236 67.3863 14.2542 67.1722C14.2542 66.9275 14.2542 66.7134 14.2542 66.5604L13.7036 66.071L11.0424 69.0075L11.6848 69.5886L13.4283 67.6616C13.3977 68.1816 13.3671 68.7016 13.2754 69.2216C13.1836 69.7722 13.0918 70.2922 12.9695 70.7816ZM19.6377 70.8122L16.9459 68.9463L16.5177 69.5581L17.4965 70.231L15.6918 72.8616L16.4259 73.3816L18.2307 70.751L19.2095 71.4239L19.6377 70.8122ZM20.5248 71.3016L18.5977 74.7581L19.3624 75.1863L21.2895 71.7298L20.5248 71.3016ZM22.0236 71.0875L21.993 70.3839L20.6471 70.4757L20.6777 71.0263L22.0236 71.0875ZM22.1765 75.7981C21.9318 75.7063 21.7483 75.5839 21.6259 75.4616C21.473 75.3392 21.3812 75.2475 21.2895 75.1251L20.7695 75.6757C20.8001 75.7369 20.8612 75.7675 20.9224 75.8286C20.9836 75.8898 21.0448 75.951 21.1365 76.0428C21.2283 76.1039 21.3201 76.1957 21.4424 76.2569C21.5648 76.3181 21.7177 76.4098 21.8707 76.471C22.3601 76.6851 22.7577 76.7463 23.0636 76.6545C23.3695 76.5628 23.6142 76.3486 23.7671 76.0122C23.8283 75.8286 23.8895 75.6757 23.8895 75.5228C23.8895 75.3698 23.8895 75.2475 23.8283 75.1251C23.7671 75.0028 23.7059 74.8498 23.5836 74.7275C23.4612 74.6051 23.3389 74.4522 23.1859 74.2992C23.0942 74.2381 23.033 74.1463 22.9718 74.0851C22.9107 74.0239 22.8495 73.9628 22.8189 73.9016C22.7883 73.8404 22.7577 73.7792 22.7271 73.7181C22.7271 73.6569 22.7271 73.5957 22.7577 73.5345C22.8189 73.4122 22.8801 73.351 23.0024 73.351C23.1248 73.3204 23.2777 73.3816 23.4612 73.4428C23.6448 73.5345 23.7671 73.5957 23.8895 73.6875C23.9812 73.7792 24.073 73.871 24.1648 73.9628L24.6848 73.4122C24.593 73.2898 24.4707 73.1675 24.3177 73.0451C24.1648 72.9228 23.9507 72.8004 23.7059 72.6781C23.4918 72.5863 23.3083 72.5251 23.1248 72.5251C22.9412 72.4945 22.7577 72.5251 22.6048 72.5557C22.4518 72.5863 22.2989 72.6781 22.1765 72.7698C22.0542 72.8616 21.9624 73.0145 21.8707 73.1675C21.8095 73.3204 21.7789 73.5039 21.7789 73.6263C21.7789 73.7792 21.8095 73.9016 21.8707 74.0239C21.9318 74.1463 21.993 74.2686 22.1154 74.3604C22.2071 74.4522 22.2989 74.5745 22.4212 74.6663C22.6659 74.8804 22.8189 75.0334 22.8801 75.1863C22.9718 75.3086 22.9718 75.431 22.9107 75.5534C22.8801 75.6145 22.8495 75.6451 22.8189 75.7063C22.7883 75.7369 22.7271 75.7675 22.6659 75.7981C22.6048 75.7981 22.5436 75.7981 22.4518 75.7981C22.3907 75.8898 22.2683 75.8592 22.1765 75.7981ZM25.9695 73.7792L24.7459 77.5416L25.6024 77.8169L26.8259 74.0545L25.9695 73.7792ZM29.0895 74.6969L28.2636 74.5439C28.1718 74.7886 28.0801 75.0639 27.9883 75.4004C27.8965 75.7063 27.8048 76.0428 27.713 76.3792C27.6212 76.7157 27.5295 77.0522 27.4377 77.4192C27.3459 77.7557 27.2542 78.0922 27.193 78.3981L28.0495 78.5816C28.1412 78.2145 28.233 77.7863 28.3248 77.3581C28.4165 76.9298 28.5389 76.471 28.6612 76.0428C28.6918 76.2263 28.753 76.4098 28.7836 76.5933C28.8142 76.8075 28.8754 77.0216 28.9059 77.2051C28.9365 77.4192 28.9977 77.6028 29.0283 77.7863C29.0589 77.9698 29.0895 78.1228 29.1201 78.2757L29.7318 78.3981C29.8236 78.2757 29.9154 78.1534 30.0071 78.0004C30.1295 77.8475 30.2212 77.6639 30.3436 77.511C30.4659 77.3275 30.5883 77.1745 30.7107 76.991C30.833 76.8075 30.9248 76.6545 31.0471 76.5016C30.9859 76.9604 30.9248 77.4192 30.8636 77.8781C30.8024 78.3369 30.7412 78.7345 30.6495 79.1322L31.5059 79.3157C31.5671 79.0098 31.5977 78.6734 31.6589 78.3369C31.7201 78.0004 31.7507 77.6334 31.8118 77.2969C31.8424 76.9604 31.9036 76.5933 31.9342 76.2875C31.9648 75.951 31.9954 75.6757 31.9954 75.4004L31.2001 75.2475C31.1083 75.3698 30.9859 75.4922 30.8636 75.6451C30.7412 75.7981 30.6189 75.9816 30.4659 76.1651C30.3436 76.3486 30.1907 76.5628 30.0683 76.7463C29.9459 76.9604 29.793 77.1439 29.6707 77.3275C29.6401 77.1134 29.5789 76.8992 29.5177 76.6545C29.4565 76.4098 29.4259 76.1957 29.3648 75.951C29.3036 75.7063 29.273 75.4922 29.2118 75.3086C29.1812 75.0028 29.1201 74.8192 29.0895 74.6969ZM35.9412 79.4686L36.8895 79.4992C36.7671 79.071 36.6448 78.6734 36.5224 78.3063C36.4001 77.9392 36.2777 77.6028 36.1859 77.2663C36.0636 76.9298 35.9412 76.6239 35.8495 76.3486C35.7271 76.0428 35.6048 75.7675 35.513 75.4922L34.6565 75.4616C34.5036 75.7369 34.3812 76.0122 34.2283 76.2875C34.1059 76.5628 33.953 76.8686 33.8001 77.1745C33.6471 77.4804 33.5248 77.8169 33.3718 78.1839C33.2189 78.551 33.0659 78.9181 32.913 79.3463L33.8307 79.3769C33.8918 79.2545 33.9224 79.1016 33.9836 78.9486C34.0448 78.7957 34.1059 78.6734 34.1365 78.5204L35.6965 78.5816C35.7271 78.7345 35.7883 78.8875 35.8189 79.0098C35.8495 79.1933 35.9107 79.3463 35.9412 79.4686ZM34.993 76.3792C35.0236 76.4404 35.0542 76.5016 35.0848 76.6239C35.1154 76.7157 35.1459 76.8381 35.2071 76.9604C35.2377 77.0828 35.2989 77.2357 35.3601 77.3886C35.4212 77.5416 35.4518 77.7251 35.513 77.8781L34.3812 77.8475C34.4424 77.6639 34.5036 77.511 34.5954 77.3581C34.6565 77.2051 34.7177 77.0522 34.7789 76.9298C34.8401 76.8075 34.8707 76.6851 34.9318 76.5933C34.9318 76.5016 34.9624 76.4404 34.993 76.3792Z" fill="#646363"/>
<path d="M42.1506 79.071C41.5083 79.1628 40.9883 79.071 40.6212 78.7651C40.2236 78.4592 39.9789 77.9698 39.8871 77.3275C39.8259 76.991 39.8565 76.7157 39.9177 76.4404C39.9789 76.1651 40.1012 75.9204 40.2236 75.7369C40.3765 75.5228 40.56 75.3698 40.8048 75.2475C41.0495 75.1251 41.2942 75.0334 41.5695 75.0028C41.7224 74.9722 41.8753 74.9722 42.0283 74.9722C42.1812 74.9722 42.3036 74.9722 42.3953 75.0028C42.4871 75.0334 42.5789 75.0334 42.6706 75.0639C42.7318 75.0945 42.793 75.0945 42.8236 75.1251L42.6706 75.8898C42.5483 75.8287 42.3953 75.7981 42.2118 75.7981C42.0589 75.7675 41.8448 75.7675 41.6612 75.7981C41.5389 75.8286 41.3859 75.8592 41.2636 75.9204C41.1412 75.9816 41.0495 76.0734 40.9577 76.1957C40.8659 76.3181 40.8048 76.4404 40.7742 76.6239C40.7436 76.7769 40.7436 76.991 40.7742 77.2051C40.8048 77.3886 40.8353 77.5416 40.8965 77.6945C40.9577 77.8475 41.0495 77.9698 41.1412 78.0616C41.233 78.1534 41.3859 78.2451 41.5389 78.2757C41.6918 78.3063 41.8753 78.3369 42.0589 78.3063C42.1812 78.2757 42.3036 78.2757 42.3953 78.2451C42.4871 78.2145 42.5789 78.1839 42.6706 78.1534C42.7318 78.1228 42.8236 78.0922 42.8542 78.0616C42.9153 78.031 42.9459 78.0004 43.0071 77.9698L43.3436 78.6428C43.2212 78.7345 43.0683 78.8263 42.8542 78.9181C42.7012 78.9486 42.4565 79.0404 42.1506 79.071ZM47.8095 75.5534C47.7177 75.2169 47.5648 74.9722 47.4118 74.7275C47.2283 74.5134 47.0448 74.3298 46.8306 74.2381C46.6165 74.1157 46.3718 74.0545 46.1271 74.0239C45.8824 73.9934 45.6071 74.0239 45.3624 74.1157C45.1177 74.1769 44.873 74.2992 44.6895 74.4522C44.4753 74.6051 44.3224 74.7886 44.2 75.0028C44.0777 75.2169 43.9859 75.4616 43.9553 75.7369C43.9248 76.0122 43.9553 76.3181 44.0471 76.6545C44.1389 76.991 44.2918 77.2357 44.4448 77.4804C44.6283 77.6945 44.8118 77.8781 45.0259 77.9698C45.24 78.0922 45.4848 78.1534 45.7295 78.1534C45.9742 78.1839 46.2495 78.1534 46.4942 78.0616C46.7695 77.9698 46.9836 77.8781 47.1977 77.7251C47.4118 77.5722 47.5648 77.3886 47.6871 77.1745C47.8095 76.9604 47.8706 76.7157 47.9012 76.4404C47.9624 76.1651 47.9318 75.8592 47.8095 75.5534ZM44.9342 76.4098C44.873 76.2263 44.8424 76.0428 44.8424 75.8898C44.8424 75.7369 44.873 75.5839 44.9342 75.431C44.9953 75.3087 45.0565 75.1863 45.1789 75.0945C45.2706 75.0028 45.4236 74.911 45.5765 74.8804C45.7295 74.8192 45.8824 74.8192 46.0353 74.8498C46.1883 74.8804 46.3106 74.911 46.433 75.0028C46.5553 75.0945 46.6471 75.1863 46.7389 75.3392C46.8306 75.4922 46.8918 75.6451 46.953 75.8286C47.0142 76.0122 47.0448 76.1957 47.0448 76.3486C47.0448 76.5016 47.0142 76.6545 46.953 76.8075C46.8918 76.9298 46.8306 77.0522 46.7083 77.1439C46.5859 77.2357 46.4636 77.2969 46.3106 77.3581C46.1577 77.4192 46.0048 77.4192 45.8518 77.3886C45.6989 77.3581 45.5765 77.3275 45.4542 77.2357C45.3318 77.1439 45.2401 77.0522 45.1483 76.8992C45.0565 76.7463 44.9953 76.5934 44.9342 76.4098ZM52.3671 75.7063L53.04 75.4004L51.3577 71.8216L50.5624 72.1886L51.5412 74.2992C51.3271 74.1769 51.113 74.0545 50.8683 73.9016C50.6236 73.7792 50.4095 73.6263 50.1648 73.5039C49.92 73.3816 49.7059 73.2592 49.4918 73.1675C49.2777 73.0757 49.0942 72.9839 48.9106 72.9228L48.2683 73.2286L49.9506 76.8075L50.7459 76.4404L49.6448 74.0851C50.1036 74.2992 50.5624 74.5439 51.0212 74.8192C51.5106 75.0945 51.9389 75.4004 52.3671 75.7063ZM56.1906 73.5651C56.4353 73.4122 56.6495 73.2286 56.8024 73.0451C56.9553 72.8616 57.0777 72.7086 57.1389 72.5863L56.5577 72.1275C56.5271 72.1887 56.4965 72.2192 56.4659 72.2804C56.4353 72.3416 56.3742 72.4028 56.313 72.4639C56.2518 72.5251 56.1906 72.5863 56.0989 72.6475C56.0071 72.7086 55.9153 72.8004 55.8236 72.8616C55.64 72.9839 55.4871 73.0451 55.3342 73.0757C55.1812 73.1063 55.0283 73.0757 54.9059 73.0451C54.7836 72.9839 54.6306 72.9228 54.5083 72.8004C54.3859 72.6781 54.2942 72.5557 54.1718 72.4028C54.0495 72.2192 53.9577 72.0357 53.9271 71.8522C53.8965 71.6992 53.8965 71.5463 53.9271 71.3934C53.9577 71.2404 54.0189 71.1181 54.1106 71.0263C54.2024 70.9039 54.2942 70.8122 54.4165 70.751C54.6 70.6286 54.753 70.5675 54.9059 70.5063C55.0589 70.4451 55.2118 70.4145 55.3648 70.4145L55.1812 69.6804C55.1506 69.6804 55.0895 69.6804 55.0283 69.6804C54.9671 69.6804 54.8753 69.711 54.753 69.7416C54.6612 69.7722 54.5389 69.8028 54.4165 69.8639C54.2942 69.9251 54.1412 69.9863 54.0189 70.0781C53.7742 70.231 53.5906 70.4145 53.4071 70.6286C53.2542 70.8428 53.1318 71.0569 53.1012 71.3016C53.0401 71.5463 53.0401 71.8216 53.1012 72.0663C53.1624 72.3416 53.2848 72.6169 53.4377 72.8922C53.8048 73.4428 54.2024 73.7792 54.6918 73.9016C55.1506 74.0239 55.6706 73.9016 56.1906 73.5651ZM58.4236 71.8828L60.5648 70.0781L60.0753 69.4969L58.6071 70.7204L57.9953 69.9863L59.2189 68.9769L58.7601 68.4263L57.5365 69.4357L57.0471 68.8545L58.4236 67.6922L57.9342 67.111L55.8848 68.8239L58.4236 71.8828ZM59.5248 65.3981C59.4024 65.5204 59.28 65.6734 59.1577 65.8263C59.0353 66.0098 58.913 66.1628 58.7906 66.3463L61.6659 69.0075L62.2777 68.3651L61.2989 67.4781L61.4824 67.2639C61.8801 66.8357 62.1248 66.4075 62.1859 66.0404C62.2471 65.6734 62.0942 65.3063 61.7577 65.0004C61.4212 64.6945 61.0542 64.5722 60.6871 64.6639C60.32 64.7251 59.953 64.9698 59.5248 65.3981ZM60.1365 65.8875C60.2283 65.7957 60.32 65.7039 60.3812 65.6428C60.473 65.5816 60.5648 65.5204 60.6259 65.5204C60.7177 65.4898 60.7789 65.4898 60.8706 65.5204C60.9624 65.551 61.0236 65.5816 61.1153 65.6734C61.2683 65.8263 61.3295 65.9792 61.2989 66.1628C61.2683 66.3463 61.1153 66.5298 60.9318 66.7745L60.7483 66.9886L59.9224 66.2239C59.953 66.1934 59.9836 66.1322 60.0142 66.1016C60.0448 65.9792 60.0753 65.9181 60.1365 65.8875ZM65.7953 64.1439C65.9789 63.8992 66.1012 63.6545 66.193 63.4404C66.2848 63.2263 66.3153 63.0428 66.3459 62.8898L65.6118 62.6757C65.6118 62.7369 65.5812 62.7981 65.5812 62.8592C65.5812 62.9204 65.5506 62.9816 65.52 63.0734C65.4895 63.1651 65.4589 63.2263 65.3977 63.3181C65.3365 63.4098 65.2753 63.5016 65.2142 63.6239C65.0918 63.7769 64.9695 63.8992 64.8165 63.991C64.6636 64.0828 64.5412 64.1134 64.3883 64.1134C64.2353 64.1134 64.0824 64.0828 63.9295 64.0216C63.7765 63.9604 63.6236 63.8686 63.4706 63.7769C63.2871 63.6545 63.1342 63.5016 63.0424 63.3792C62.9506 63.2263 62.8895 63.1039 62.8589 62.951C62.8283 62.7981 62.8283 62.6757 62.8895 62.5534C62.9201 62.431 62.9812 62.3086 63.073 62.1863C63.1953 62.0334 63.3177 61.8804 63.44 61.7886C63.5624 61.6969 63.6848 61.6051 63.8071 61.5439L63.3789 60.9016C63.3483 60.9016 63.2871 60.9322 63.2259 60.9628C63.1648 60.9934 63.073 61.0545 62.9812 61.1157C62.8895 61.1769 62.7977 61.2687 62.7059 61.3604C62.6142 61.4522 62.5224 61.5745 62.4 61.6969C62.2471 61.9416 62.1248 62.1863 62.033 62.431C61.9718 62.6757 61.9412 62.951 62.0024 63.1957C62.033 63.4404 62.1248 63.6851 62.2777 63.9298C62.4306 64.1745 62.6448 64.3886 62.8895 64.5722C63.4401 64.9698 63.9295 65.1228 64.4189 65.031C65.0001 64.9698 65.4283 64.6639 65.7953 64.1439ZM63.7765 59.8616L67.2024 61.8192L67.6306 61.0545L64.2048 59.0969L63.7765 59.8616ZM65.0306 55.2428L64.3577 55.3345L64.6024 56.6804L65.1224 56.5886L65.0306 55.2428ZM68.1812 55.2428C67.8753 55.1204 67.5695 55.0286 67.2942 55.0286C67.0189 55.0286 66.7742 55.0592 66.5295 55.151C66.2848 55.2428 66.1012 55.3957 65.9177 55.5792C65.7342 55.7628 65.6118 55.9769 65.4895 56.2216C65.3977 56.4663 65.3365 56.711 65.3059 56.9557C65.3059 57.2004 65.3365 57.4451 65.4283 57.6898C65.52 57.9345 65.673 58.1486 65.8565 58.3322C66.0401 58.5463 66.3153 58.6992 66.6212 58.8216C66.9271 58.9439 67.233 59.0357 67.5083 59.0357C67.7836 59.0357 68.0283 59.0051 68.273 58.9134C68.5177 58.8216 68.7012 58.6686 68.8848 58.4851C69.0683 58.3016 69.1906 58.0875 69.313 57.8428C69.4353 57.5981 69.4965 57.3228 69.4965 57.0781C69.4965 56.8334 69.4659 56.5886 69.3742 56.3439C69.2824 56.1298 69.1295 55.9157 68.9459 55.7016C68.7318 55.5486 68.4871 55.3957 68.1812 55.2428ZM66.9883 58.0263C66.8048 57.9651 66.6518 57.8734 66.5295 57.751C66.4071 57.6592 66.3153 57.5369 66.2236 57.4145C66.1624 57.2922 66.1318 57.1392 66.1012 57.0169C66.1012 56.8639 66.1318 56.711 66.193 56.5581C66.2542 56.4051 66.3459 56.2828 66.4377 56.191C66.56 56.0992 66.6824 56.0381 66.8048 55.9769C66.9577 55.9463 67.08 55.9157 67.2636 55.9463C67.4165 55.9769 67.6001 56.0075 67.7836 56.0992C67.9671 56.191 68.1201 56.2522 68.2424 56.3745C68.3648 56.4663 68.4565 56.5886 68.5177 56.711C68.5789 56.8334 68.6095 56.9863 68.64 57.1086C68.64 57.2616 68.6095 57.4145 68.5483 57.5369C68.4871 57.6898 68.3953 57.8122 68.273 57.9039C68.1506 57.9957 68.0283 58.0569 67.9059 58.0875C67.753 58.1181 67.6306 58.1486 67.4471 58.1181C67.3248 58.1486 67.1412 58.0875 66.9883 58.0263ZM71.2095 51.8475L71.393 51.1134L67.5695 50.1039L67.3553 50.9604L69.6189 51.5416C69.3742 51.6334 69.1295 51.6945 68.8848 51.8169C68.64 51.9086 68.3953 52.0004 68.1506 52.1228C67.9059 52.2145 67.6918 52.3369 67.4777 52.4286C67.2636 52.5204 67.0801 52.6122 66.9271 52.7039L66.7436 53.4075L70.5671 54.4169L70.7812 53.5604L68.273 52.9181C68.7318 52.7039 69.2212 52.4898 69.7106 52.3063C70.2 52.1534 70.6895 52.0004 71.2095 51.8475Z" fill="#646363"/>
</svg>
